<svg data-v-423bf9ae="" xmlns="http://www.w3.org/2000/svg" viewBox="0 0 392.8189365937737 60" class="font"><!----><!----><!----><g data-v-423bf9ae="" id="7589377c-9eaa-4653-aec8-8c153356849a" fill="black" transform="matrix(5.934717742604922,0,0,5.934717742604922,-3.916920008738657,-26.172104339321642)"><path d="M6.02 14.35L7.45 14.35L7.45 9.35L4.13 9.35L4.13 10.53L6.02 10.53L6.02 11.41C6.02 12.47 5.39 13.23 4.26 13.23C2.83 13.23 2.32 11.98 2.32 10.19L2.32 8.64C2.32 6.85 2.90 5.71 4.26 5.71C5.35 5.71 5.74 6.45 6.03 7.31L7.45 6.83C7.04 5.52 6.16 4.41 4.24 4.41C1.82 4.41 0.66 6.22 0.66 9.53C0.66 12.70 1.69 14.52 3.72 14.52C5.01 14.52 5.60 13.79 5.92 13.01L6.02 13.01ZM15.72 14.35L15.72 13.03L11.17 13.03L11.17 10.05L15.55 10.05L15.55 8.74L11.17 8.74L11.17 5.89L15.72 5.89L15.72 4.58L9.60 4.58L9.60 14.35ZM23.03 14.35L24.42 14.35L24.42 4.58L22.61 4.58L21.10 8.46L21 8.46L19.50 4.58L17.58 4.58L17.58 14.35L18.97 14.35L18.97 9.67L18.93 6.73L19.04 6.73L21 11.76L22.96 6.73L23.07 6.73L23.03 9.67ZM29.68 14.52C31.57 14.52 32.44 13.43 32.89 12.10L31.47 11.62C31.18 12.52 30.77 13.22 29.67 13.22C28.28 13.22 27.68 12.08 27.68 10.29L27.68 8.64C27.68 6.85 28.28 5.71 29.67 5.71C30.77 5.71 31.18 6.41 31.47 7.31L32.89 6.83C32.44 5.50 31.57 4.41 29.68 4.41C27.20 4.41 26.01 6.23 26.01 9.46C26.01 12.70 27.20 14.52 29.68 14.52ZM36.33 10.40L37.63 10.40L39.70 14.35L41.44 14.35L39.19 10.26C40.54 10.04 41.30 9.00 41.30 7.52C41.30 5.70 40.28 4.58 38.43 4.58L34.78 4.58L34.78 14.35L36.33 14.35ZM36.33 9.14L36.33 5.88L38.21 5.88C39.19 5.88 39.66 6.31 39.66 7.21L39.66 7.81C39.66 8.71 39.19 9.14 38.21 9.14ZM49.32 14.35L49.32 13.03L44.77 13.03L44.77 10.05L49.15 10.05L49.15 8.74L44.77 8.74L44.77 5.89L49.32 5.89L49.32 4.58L43.20 4.58L43.20 14.35ZM54.52 14.52C56.81 14.52 58.07 13.31 58.07 11.51C58.07 10.12 57.32 9.11 55.55 8.79L54.52 8.61C53.31 8.41 52.89 7.97 52.89 7.17C52.89 6.22 53.52 5.71 54.67 5.71C55.75 5.71 56.46 6.15 56.99 6.80L57.97 5.82C57.30 4.94 56.21 4.41 54.67 4.41C52.60 4.41 51.31 5.40 51.31 7.24C51.31 8.54 51.97 9.65 53.82 9.95L54.88 10.12C56.06 10.32 56.49 10.75 56.49 11.59C56.49 12.63 55.80 13.22 54.57 13.22C53.52 13.22 52.70 12.80 51.95 11.91L50.95 12.88C51.69 13.86 52.82 14.52 54.52 14.52ZM66.85 5.89L66.85 4.58L59.15 4.58L59.15 5.89L62.22 5.89L62.22 14.35L63.78 14.35L63.78 5.89Z"></path></g><!----><!----></svg>