<svg width="40" height="40" viewBox="0 0 40 40" fill="none" xmlns="http://www.w3.org/2000/svg">
<path d="M0.000135864 6.82571C-0.00550786 5.93402 0.164729 5.04995 0.501105 4.22412C0.837482 3.39828 1.3334 2.64687 1.96047 2.01289C2.58755 1.37891 3.33348 0.874805 4.15558 0.52941C4.97768 0.184015 5.85982 0.00411394 6.75153 0H33.2514C34.142 0.004117 35.023 0.183662 35.8442 0.528377C36.6654 0.873092 37.4107 1.37622 38.0374 2.00903C38.6641 2.64183 39.16 3.39191 39.4967 4.21641C39.8334 5.04091 40.0044 5.92368 39.9999 6.81429V33.1857C40.0044 34.0763 39.8334 34.9591 39.4967 35.7836C39.16 36.6081 38.6641 37.3582 38.0374 37.991C37.4107 38.6238 36.6654 39.1269 35.8442 39.4716C35.023 39.8163 34.142 39.9959 33.2514 40H6.75153C5.86079 39.9959 4.97959 39.8164 4.15824 39.4717C3.33688 39.127 2.59146 38.6239 1.96453 37.9911C1.33761 37.3584 0.841453 36.6083 0.504401 35.7838C0.167349 34.9593 -0.00400095 34.0765 0.000135864 33.1857V6.82571Z" fill="#7947BF"/>
<path d="M32.3754 9.68359L29.3784 12.6093C29.4788 12.9615 29.5308 13.3253 29.5332 13.6909C29.5349 14.3135 29.3889 14.928 29.1066 15.4861C28.8243 16.0441 28.4135 16.5305 27.9064 16.9069C27.3994 17.2834 26.8099 17.5396 26.1844 17.6554C25.559 17.7712 24.9145 17.7435 24.3019 17.5744L23.6659 18.1964L21.3105 20.5001C22.853 21.3922 24.655 21.7573 26.4329 21.5379C28.2108 21.3184 29.8635 20.5269 31.1309 19.2879C32.3984 18.0489 33.2085 16.4328 33.4338 14.694C33.6591 12.9553 33.2868 11.1926 32.3754 9.68359Z" fill="#FDFDFD"/>
<path d="M21.2897 13.6905C21.288 13.0683 21.4339 12.4541 21.7161 11.8964C21.9982 11.3386 22.4088 10.8526 22.9156 10.4764C23.4224 10.1002 24.0116 9.84423 24.6367 9.72856C25.2619 9.61288 25.9059 9.64069 26.5182 9.80978L29.5095 6.88134C28.437 6.26335 27.2329 5.8962 25.9914 5.80857C24.7498 5.72094 23.5043 5.9152 22.3522 6.37617C21.2 6.83714 20.1725 7.55235 19.3496 8.46595C18.5268 9.37954 17.9311 10.4668 17.6089 11.6428C17.2393 13.0034 17.2451 14.4356 17.6258 15.7933C17.8144 16.4602 18.0926 17.0997 18.4531 17.6951L20.8085 15.3914L21.4417 14.7694C21.3423 14.418 21.2911 14.0551 21.2897 13.6905Z" fill="#FDFDFD"/>
<g opacity="0.75">
<path opacity="0.75" d="M25.4063 21.5931C24.6803 21.5963 23.9571 21.5037 23.2564 21.3179C22.8964 21.9195 22.3836 22.4201 21.7678 22.7711C21.1392 23.1325 20.423 23.3226 19.6938 23.3215C19.3186 23.3168 18.9458 23.2631 18.5851 23.1619L17.9491 23.7812L15.5938 26.0848C16.6661 26.7034 17.8703 27.071 19.112 27.1589C20.3538 27.2469 21.5995 27.0527 22.7518 26.5917C23.9041 26.1306 24.9318 25.4152 25.7545 24.5013C26.5772 23.5873 27.1727 22.4997 27.4944 21.3234C26.8133 21.5015 26.1114 21.5921 25.4063 21.5931Z" fill="#F7F7F7"/>
<path opacity="0.75" d="M15.5759 19.2674C15.5773 18.5627 15.7671 17.8706 16.1265 17.2599C16.4858 16.6491 17.0023 16.1409 17.6245 15.7857C17.2438 14.428 17.238 12.9959 17.6076 11.6353C16.5766 11.9048 15.6105 12.3716 14.7651 13.0087C13.9198 13.6457 13.2119 14.4404 12.6825 15.3467C12.1531 16.253 11.8127 17.2529 11.6809 18.2887C11.5491 19.3245 11.6286 20.3756 11.9148 21.3811C12.1019 22.049 12.3792 22.6895 12.7393 23.2857L15.0947 20.982L15.7307 20.3683C15.6271 20.0101 15.575 19.6396 15.5759 19.2674Z" fill="#F7F7F7"/>
</g>
<g opacity="0.5">
<path opacity="0.5" d="M17.5437 26.8936C17.0874 27.6658 16.3809 28.2673 15.5359 28.6028C14.6909 28.9382 13.7556 28.9886 12.8781 28.7459L9.88672 31.6715C10.959 32.2896 12.1629 32.6567 13.4043 32.7444C14.6457 32.832 15.891 32.6377 17.043 32.1767C18.1949 31.7157 19.2223 31.0005 20.0448 30.0869C20.8673 29.1732 21.4627 28.086 21.7845 26.9101C20.3943 27.2716 18.9309 27.2659 17.5437 26.8936Z" fill="#BCBCBC"/>
<path opacity="0.5" d="M9.8685 24.865C9.86827 24.1593 10.0577 23.466 10.4177 22.8545C10.7778 22.2429 11.2958 21.7347 11.9199 21.3806C11.5356 20.0244 11.5297 18.5921 11.9031 17.2329C10.7002 17.5474 9.58791 18.1296 8.65317 18.934C7.71843 19.7385 6.98652 20.7435 6.51463 21.8704C6.04274 22.9973 5.84364 24.2157 5.93289 25.4303C6.02214 26.645 6.39732 27.823 7.02912 28.8724L10.0205 25.9467C9.91983 25.5945 9.8687 25.2306 9.8685 24.865Z" fill="#BCBCBC"/>
</g>
</svg>
