<svg width="41" height="42" viewBox="0 0 41 42" fill="none" xmlns="http://www.w3.org/2000/svg">
<path d="M38.9568 29.7647L29.2645 39.4571C28.6345 40.087 29.0807 41.1642 29.9716 41.1642H39.6639C40.2162 41.1642 40.6639 40.7165 40.6639 40.1642V30.4718C40.6639 29.5809 39.5868 29.1348 38.9568 29.7647Z" fill="#DFD9FF"/>
<path d="M2.37924 12.5717L12.0716 2.87936C12.7015 2.24939 12.2554 1.17225 11.3645 1.17225L1.67213 1.17225C1.11984 1.17225 0.672128 1.61997 0.672128 2.17225L0.672128 11.8646C0.672129 12.7555 1.74927 13.2017 2.37924 12.5717Z" fill="#DFD9FF"/>
<circle cx="28.2295" cy="13.2705" r="12.7705" fill="#A089FF"/>
<circle cx="28.2295" cy="13.2707" r="8.06557" fill="#866FE6"/>
<circle cx="12.7705" cy="28.7295" r="12.7705" fill="#D1C9FF"/>
<circle cx="12.7705" cy="28.7296" r="8.06557" fill="#C0B5FE"/>
</svg>
