<svg width="99" height="94" viewBox="0 0 99 94" fill="none" xmlns="http://www.w3.org/2000/svg">
<g filter="url(#filter0_f_2893_27398)">
<path d="M49.5731 84.0004C71.0382 84.0004 88.4391 83.386 88.4391 82.6281C88.4391 81.8703 71.0382 81.2559 49.5731 81.2559C28.1079 81.2559 10.707 81.8703 10.707 82.6281C10.707 83.386 28.1079 84.0004 49.5731 84.0004Z" fill="url(#paint0_radial_2893_27398)"/>
</g>
<path d="M51.3461 73.623C76.1634 73.623 96.2781 68.1514 96.2828 61.4041V58.3398H6.41406V61.3993C6.41406 68.1466 26.5334 73.6182 51.3508 73.6182L51.3461 73.623Z" fill="#6F63DD"/>
<path d="M99.0007 58.072C99.0007 64.4164 77.6678 69.5571 51.3524 69.5571C25.0369 69.5571 3.69922 64.4164 3.69922 58.072V44.7598H99.0007V58.072Z" fill="url(#paint1_linear_2893_27398)"/>
<path d="M51.3476 59.1222C77.663 59.1222 98.996 53.9814 98.996 47.637V44.7598H3.69922V47.637C3.69922 53.9814 25.0322 59.1222 51.3476 59.1222Z" fill="url(#paint2_linear_2893_27398)"/>
<path d="M51.3476 56.2456C77.6631 56.2456 98.996 51.1036 98.996 44.7605C98.996 38.4175 77.6631 33.2754 51.3476 33.2754C25.0321 33.2754 3.69922 38.4175 3.69922 44.7605C3.69922 51.1036 25.0321 56.2456 51.3476 56.2456Z" fill="url(#paint3_linear_2893_27398)"/>
<path d="M51.3449 47.8074C72.602 47.8074 89.8344 44.8166 89.8344 41.1273C89.8344 37.438 72.602 34.4473 51.3449 34.4473C30.0878 34.4473 12.8555 37.438 12.8555 41.1273C12.8555 44.8166 30.0878 47.8074 51.3449 47.8074Z" fill="#7039EB"/>
<path d="M51.3449 34.4473C30.0878 34.4473 12.8555 37.4396 12.8555 41.1273C12.8555 42.2591 14.4768 43.3237 17.3354 44.254C17.1647 44.0142 17.0699 43.7696 17.0699 43.5251C17.0699 40.2402 32.4154 37.5739 51.3449 37.5739C70.2744 37.5739 85.6199 40.2354 85.6199 43.5251C85.6199 43.7744 85.5203 44.0142 85.3544 44.254C88.2083 43.3189 89.8344 42.2543 89.8344 41.1273C89.8344 37.4396 72.602 34.4473 51.3449 34.4473Z" fill="url(#paint4_linear_2893_27398)"/>
<path d="M10.9635 62.3726C12.2831 62.3726 13.3528 60.7344 13.3528 58.7136C13.3528 56.6929 12.2831 55.0547 10.9635 55.0547C9.64394 55.0547 8.57422 56.6929 8.57422 58.7136C8.57422 60.7344 9.64394 62.3726 10.9635 62.3726Z" fill="#6F63DD"/>
<path d="M10.0279 61.8788C11.1694 61.8788 12.0948 60.4618 12.0948 58.7138C12.0948 56.9659 11.1694 55.5488 10.0279 55.5488C8.88633 55.5488 7.96094 56.9659 7.96094 58.7138C7.96094 60.4618 8.88633 61.8788 10.0279 61.8788Z" fill="url(#paint5_linear_2893_27398)"/>
<path d="M4.00648 58.3374C5.32605 58.3374 6.39577 56.6992 6.39577 54.6785C6.39577 52.6577 5.32605 51.0195 4.00648 51.0195C2.68691 51.0195 1.61719 52.6577 1.61719 54.6785C1.61719 56.6992 2.68691 58.3374 4.00648 58.3374Z" fill="#6F63DD"/>
<path d="M3.06693 57.8437C4.20846 57.8437 5.13386 56.4267 5.13386 54.6787C5.13386 52.9307 4.20846 51.5137 3.06693 51.5137C1.9254 51.5137 1 52.9307 1 54.6787C1 56.4267 1.9254 57.8437 3.06693 57.8437Z" fill="url(#paint6_linear_2893_27398)"/>
<path d="M48.0414 43.3954C57.2667 45.6176 66.5261 39.8541 68.7229 30.5222C70.9197 21.1903 65.222 11.8239 55.9967 9.60175C46.7715 7.37956 37.5121 13.1431 35.3153 22.475C33.1185 31.8068 38.8162 41.1733 48.0414 43.3954Z" fill="url(#paint7_linear_2893_27398)"/>
<path d="M48.915 39.681C56.1121 41.4146 63.3358 36.9182 65.0496 29.6379C66.7635 22.3576 62.3184 15.0504 55.1213 13.3168C47.9242 11.5831 40.7005 16.0796 38.9867 23.3598C37.2728 30.6401 41.7179 37.9473 48.915 39.681Z" fill="url(#paint8_linear_2893_27398)"/>
<path d="M49.2634 38.214C55.6582 39.7544 62.0765 35.7593 63.5993 29.2906C65.1221 22.822 61.1726 16.3294 54.7779 14.7891C48.3832 13.2487 41.9648 17.2439 40.442 23.7125C38.9193 30.1811 42.8687 36.6737 49.2634 38.214Z" fill="url(#paint9_linear_2893_27398)"/>
<path fill-rule="evenodd" clip-rule="evenodd" d="M51.83 14.4583C52.5458 14.4955 53.2684 14.5989 53.9907 14.7728C60.3854 16.3132 64.3349 22.8058 62.8122 29.2744C61.5246 34.7439 56.737 38.445 51.4231 38.5267C57.0445 38.8185 62.2475 35.0267 63.5982 29.2888C65.121 22.8201 61.1715 16.3276 54.7768 14.7872C53.7891 14.5493 52.8008 14.4434 51.83 14.4583Z" fill="url(#paint10_linear_2893_27398)"/>
<path fill-rule="evenodd" clip-rule="evenodd" d="M54.8058 38.2096C53.3141 38.4484 51.7524 38.4021 50.1921 38.0263C43.7974 36.4859 39.8479 29.9934 41.3707 23.5247C42.4443 18.9642 45.9513 15.6331 50.1678 14.6046C45.5461 15.3444 41.5969 18.821 40.4457 23.7113C38.9229 30.1799 42.8724 36.6725 49.2671 38.2129C51.1533 38.6672 53.0417 38.64 54.8058 38.2096Z" fill="url(#paint11_linear_2893_27398)"/>
<path d="M57.6055 27.1302L47.0939 27.0611L52.3517 30.1244L57.6055 27.1302Z" fill="#4755C4"/>
<path d="M52.3542 16.9067L52.3666 28.8583L47.0978 25.7872L52.3542 16.9067Z" fill="#6889FF"/>
<path d="M52.3552 23.1116L52.3579 28.858L47.0955 25.7891L52.3552 23.1116Z" fill="url(#paint12_linear_2893_27398)"/>
<path d="M52.3477 16.8965L52.36 28.8468L57.6151 25.8439L52.3477 16.8965Z" fill="url(#paint13_linear_2893_27398)"/>
<path d="M52.3516 23.1016L52.3543 28.848L57.6047 25.8469L52.3516 23.1016Z" fill="url(#paint14_linear_2893_27398)"/>
<path d="M52.3545 36.2572L52.35 30.1361L47.0859 27.0664L52.3545 36.2572Z" fill="#24BDFB"/>
<path d="M52.3545 36.2572L52.35 30.1361L47.0859 27.0664L52.3545 36.2572Z" fill="url(#paint15_linear_2893_27398)"/>
<path d="M52.3475 36.2515L52.3429 30.1275L57.6078 27.1256L52.3475 36.2515Z" fill="url(#paint16_radial_2893_27398)"/>
<path d="M86.6573 36.1975C86.6573 16.6895 71.0273 0.878906 51.7423 0.878906C32.4573 0.878906 16.832 16.6895 16.832 36.1975C16.832 36.8545 16.8557 37.5018 16.8889 38.1492C16.8889 38.178 16.8937 38.202 16.8937 38.2307C16.9505 39.2042 17.0359 40.1729 17.1686 41.1272H17.1781C17.3345 42.235 17.5336 43.3235 17.7849 44.3977C24.3792 46.431 36.9324 47.8073 51.3441 47.8073C65.7557 47.8073 79.442 46.3063 85.7613 44.1148C85.9888 43.1173 86.169 42.1055 86.3112 41.0793H86.3254C86.5435 39.4824 86.6573 37.8519 86.6573 36.1975Z" fill="url(#paint17_linear_2893_27398)"/>
<path d="M24.5977 27.8572C24.7399 27.9915 24.8821 28.1258 25.0243 28.2601C27.0865 16.7941 35.2973 7.49572 46.0776 3.99023C34.6953 6.11462 25.4889 14.5115 22.0898 25.5075C22.9574 26.2508 23.7728 27.0612 24.5977 27.8572Z" fill="url(#paint18_linear_2893_27398)"/>
<path d="M24.5562 35.5157C24.5278 34.9882 24.5088 34.4559 24.5088 33.9188C24.5088 32.4898 24.6084 31.0895 24.7885 29.7084C24.4851 29.4207 24.177 29.1378 23.8736 28.8453C23.153 28.1595 22.4514 27.4498 21.7166 26.7832C21.2709 28.4856 20.9581 30.2407 20.7969 32.0438C22.0626 33.1851 23.3094 34.3409 24.5515 35.5109L24.5562 35.5157Z" fill="url(#paint19_linear_2893_27398)"/>
<path d="M82.1118 33.2737C82.6285 32.8517 83.15 32.4441 83.6809 32.0365C82.1212 20.5705 74.5836 11.0323 64.3438 6.75C74.2517 11.6414 81.2679 21.5872 82.1118 33.2689V33.2737Z" fill="url(#paint20_linear_2893_27398)"/>
<path d="M51.7423 0.877569C70.904 0.877569 86.4581 16.4964 86.6478 35.8365C86.6478 35.6638 86.6573 35.4864 86.6573 35.3138C86.6573 15.8106 71.0273 0 51.7423 0C32.4573 0 16.832 15.8106 16.832 35.3138C16.832 35.4912 16.8368 35.6686 16.8415 35.8509C17.0217 16.506 32.5758 0.877569 51.7423 0.877569Z" fill="url(#paint21_linear_2893_27398)"/>
<path d="M90.0316 58.0547H88.6094V62.1836H90.0316V58.0547Z" fill="#6F63DD"/>
<path d="M93.5277 56.2441H92.1055V60.373H93.5277V56.2441Z" fill="#6F63DD"/>
<path d="M97.0277 54.4375H95.6055V58.5664H97.0277V54.4375Z" fill="#6F63DD"/>
<defs>
<filter id="filter0_f_2893_27398" x="0.816252" y="71.3651" width="97.512" height="22.5257" filterUnits="userSpaceOnUse" color-interpolation-filters="sRGB">
<feFlood flood-opacity="0" result="BackgroundImageFix"/>
<feBlend mode="normal" in="SourceGraphic" in2="BackgroundImageFix" result="shape"/>
<feGaussianBlur stdDeviation="4.94539" result="effect1_foregroundBlur_2893_27398"/>
</filter>
<radialGradient id="paint0_radial_2893_27398" cx="0" cy="0" r="1" gradientUnits="userSpaceOnUse" gradientTransform="translate(49.5731 82.6343) scale(27.5463 15.236)">
<stop stop-color="#738DFC"/>
<stop offset="0.489583" stop-color="#89AEFF"/>
<stop offset="0.75" stop-color="#9CCDFF"/>
<stop offset="1" stop-color="#ADD5FF"/>
</radialGradient>
<linearGradient id="paint1_linear_2893_27398" x1="120.656" y1="63.7164" x2="-45.2328" y2="33.4771" gradientUnits="userSpaceOnUse">
<stop offset="0.152368" stop-color="#84CEFF"/>
<stop offset="0.575177" stop-color="#918CF9"/>
<stop offset="1" stop-color="#8C60F0"/>
</linearGradient>
<linearGradient id="paint2_linear_2893_27398" x1="130.594" y1="55.181" x2="67.5117" y2="-3.94476" gradientUnits="userSpaceOnUse">
<stop stop-color="#84CEFF"/>
<stop offset="0.078125" stop-color="#85C7FE"/>
<stop offset="0.328897" stop-color="#6C9DFF"/>
<stop offset="0.494792" stop-color="#9CB4FD"/>
<stop offset="1" stop-color="#E1D3FF"/>
</linearGradient>
<linearGradient id="paint3_linear_2893_27398" x1="110.621" y1="54.5192" x2="82.2592" y2="9.3714" gradientUnits="userSpaceOnUse">
<stop offset="0.242462" stop-color="#FADBEE"/>
<stop offset="1" stop-color="#BFA2FF"/>
</linearGradient>
<linearGradient id="paint4_linear_2893_27398" x1="103.924" y1="41.5028" x2="66.7485" y2="-0.351113" gradientUnits="userSpaceOnUse">
<stop stop-color="#84CEFF"/>
<stop offset="0.213542" stop-color="#8AB0FC"/>
<stop offset="1" stop-color="#D4C1FF"/>
</linearGradient>
<linearGradient id="paint5_linear_2893_27398" x1="12.5991" y1="61.4031" x2="8.50808" y2="60.378" gradientUnits="userSpaceOnUse">
<stop offset="0.242462" stop-color="#FADBEE"/>
<stop offset="1" stop-color="#BFA2FF"/>
</linearGradient>
<linearGradient id="paint6_linear_2893_27398" x1="5.63814" y1="57.3679" x2="1.54714" y2="56.3428" gradientUnits="userSpaceOnUse">
<stop offset="0.242462" stop-color="#FADBEE"/>
<stop offset="1" stop-color="#BFA2FF"/>
</linearGradient>
<linearGradient id="paint7_linear_2893_27398" x1="50.652" y1="41.1622" x2="54.3124" y2="14.6071" gradientUnits="userSpaceOnUse">
<stop stop-color="#CACFF5"/>
<stop offset="0.1" stop-color="#C2CDF5"/>
<stop offset="0.5" stop-color="#ACCAF6"/>
<stop offset="1" stop-color="#9AA2FF"/>
</linearGradient>
<linearGradient id="paint8_linear_2893_27398" x1="61.5498" y1="39.2989" x2="43.554" y2="17.0275" gradientUnits="userSpaceOnUse">
<stop stop-color="#C3A8FF"/>
<stop offset="0.96875" stop-color="#C5D2FF"/>
</linearGradient>
<linearGradient id="paint9_linear_2893_27398" x1="51.9421" y1="38.859" x2="53.6844" y2="18.2215" gradientUnits="userSpaceOnUse">
<stop offset="0.09375" stop-color="#E7D0FF"/>
<stop offset="0.59375" stop-color="#F0F6FF"/>
<stop offset="1" stop-color="white"/>
</linearGradient>
<linearGradient id="paint10_linear_2893_27398" x1="58.739" y1="30.3349" x2="54.6279" y2="10.6281" gradientUnits="userSpaceOnUse">
<stop stop-color="#E8FAF5"/>
<stop offset="0.04" stop-color="#D9EDF3"/>
<stop offset="0.12" stop-color="#BDD5F1"/>
<stop offset="0.21" stop-color="#A6C1EF"/>
<stop offset="0.32" stop-color="#94B2ED"/>
<stop offset="0.44" stop-color="#88A7EC"/>
<stop offset="0.61" stop-color="#81A1EC"/>
<stop offset="1" stop-color="#7FA0EC"/>
</linearGradient>
<linearGradient id="paint11_linear_2893_27398" x1="45.6262" y1="30.2578" x2="52.9433" y2="7.02333" gradientUnits="userSpaceOnUse">
<stop stop-color="#E6E6FF"/>
<stop offset="0.70886" stop-color="#B6A5FF"/>
<stop offset="1" stop-color="#6C62E1"/>
</linearGradient>
<linearGradient id="paint12_linear_2893_27398" x1="54.2768" y1="25.269" x2="47.133" y2="27.9919" gradientUnits="userSpaceOnUse">
<stop offset="0.0572917" stop-color="#9A8DFA"/>
<stop offset="0.71" stop-color="#C1D2FF"/>
<stop offset="1" stop-color="#D8F4FF"/>
</linearGradient>
<linearGradient id="paint13_linear_2893_27398" x1="51.4428" y1="22.729" x2="57.9419" y2="23.7372" gradientUnits="userSpaceOnUse">
<stop stop-color="#C8C8FF"/>
<stop offset="0.1" stop-color="#C0C6FE"/>
<stop offset="0.26" stop-color="#AAC1FD"/>
<stop offset="0.45" stop-color="#86BAFC"/>
<stop offset="0.67" stop-color="#55B0FA"/>
<stop offset="0.85" stop-color="#2AA8F9"/>
<stop offset="1" stop-color="#6C62E1"/>
</linearGradient>
<linearGradient id="paint14_linear_2893_27398" x1="53.346" y1="23.5844" x2="56.5657" y2="27.6822" gradientUnits="userSpaceOnUse">
<stop stop-color="#F0D8F6"/>
<stop offset="0.692708" stop-color="#CABEFD"/>
</linearGradient>
<linearGradient id="paint15_linear_2893_27398" x1="46.4549" y1="31.1353" x2="52.9916" y2="32.1491" gradientUnits="userSpaceOnUse">
<stop stop-color="#C8C8FF"/>
<stop offset="0.1" stop-color="#C0C6FE"/>
<stop offset="0.26" stop-color="#AAC1FD"/>
<stop offset="1" stop-color="#6889FF"/>
</linearGradient>
<radialGradient id="paint16_radial_2893_27398" cx="0" cy="0" r="1" gradientUnits="userSpaceOnUse" gradientTransform="translate(51.4081 40.2727) rotate(9.15492) scale(19.6689 19.5507)">
<stop stop-color="#646DFF"/>
<stop offset="0.0001" stop-color="#6472E9"/>
<stop offset="0.0002" stop-color="#6880E9"/>
<stop offset="0.0003" stop-color="#6F95E8"/>
<stop offset="0.0004" stop-color="#77AFE8"/>
<stop offset="0.213542" stop-color="#DBFBFF"/>
<stop offset="0.97" stop-color="#B3C8FF"/>
</radialGradient>
<linearGradient id="paint17_linear_2893_27398" x1="26.4338" y1="6.43358" x2="76.5739" y2="63.5694" gradientUnits="userSpaceOnUse">
<stop stop-color="#54AFFF" stop-opacity="0.33"/>
<stop offset="0.96" stop-color="white" stop-opacity="0"/>
</linearGradient>
<linearGradient id="paint18_linear_2893_27398" x1="42.8169" y1="5.49531" x2="38.242" y2="38.4129" gradientUnits="userSpaceOnUse">
<stop offset="0.405034" stop-color="#BDC8FF"/>
<stop offset="0.7834" stop-color="#93CBFF" stop-opacity="0"/>
</linearGradient>
<linearGradient id="paint19_linear_2893_27398" x1="21.6812" y1="27.1985" x2="22.8176" y2="36.7547" gradientUnits="userSpaceOnUse">
<stop offset="0.162457" stop-color="#BEC8FF"/>
<stop offset="1" stop-color="#93CBFF" stop-opacity="0"/>
</linearGradient>
<linearGradient id="paint20_linear_2893_27398" x1="68.628" y1="8.0113" x2="97.5982" y2="22.1588" gradientUnits="userSpaceOnUse">
<stop offset="0.405034" stop-color="white"/>
<stop offset="1" stop-color="#93CBFF"/>
</linearGradient>
<linearGradient id="paint21_linear_2893_27398" x1="99.4372" y1="25.7934" x2="28.5091" y2="5.97959" gradientUnits="userSpaceOnUse">
<stop stop-color="#BFE6FF"/>
<stop offset="0.213542" stop-color="#D8E5FF"/>
<stop offset="1" stop-color="#D4C1FF"/>
</linearGradient>
</defs>
</svg>
