<svg width="95" height="112" viewBox="0 0 95 112" fill="none" xmlns="http://www.w3.org/2000/svg">
<path d="M45.1029 30.3395C46.5173 29.5275 48.3351 29.4172 49.9457 30.361L75.3939 45.247C78.177 46.8739 79.8872 49.8559 79.8872 53.0799V82.7444C79.8872 84.4465 79.0428 85.8582 77.8194 86.7079L47.0067 104.6L15.0352 47.8069L45.1029 30.3395Z" fill="url(#paint0_linear_2893_27443)"/>
<path d="M45.1029 30.3395C46.5173 29.5275 48.3351 29.4172 49.9457 30.361L75.3939 45.247C78.177 46.8739 79.8872 49.8559 79.8872 53.0799V82.7444C79.8872 84.4465 79.0428 85.8582 77.8194 86.7079L47.0067 104.6L15.0352 47.8069L45.1029 30.3395Z" fill="url(#paint1_linear_2893_27443)"/>
<path d="M49.9431 30.361C48.3324 29.4172 46.5147 29.5275 45.1003 30.3395L38.8281 33.8586L42.0672 43.7141L58.2836 53.35L69.3296 52.6449L63.9241 38.3087L49.9431 30.361Z" fill="url(#paint2_linear_2893_27443)"/>
<path d="M77.9564 47.4844C79.1852 49.0574 79.8843 51.0176 79.8843 53.0774V82.7418C79.8843 84.4439 79.04 85.8556 77.8165 86.7053L47.0039 104.598L47.4583 65.9305L77.9537 47.4844H77.9564Z" fill="url(#paint3_linear_2893_27443)"/>
<path d="M77.9564 47.4844C79.1852 49.0574 79.8843 51.0176 79.8843 53.0774V82.7418C79.8843 84.4439 79.04 85.8556 77.8165 86.7053L47.0039 104.598L47.4583 65.9305L77.9537 47.4844H77.9564Z" fill="url(#paint4_linear_2893_27443)"/>
<path d="M77.9547 61.8114C79.1836 63.3844 79.8854 56.6153 79.8854 58.675V82.7422C79.8854 84.4443 79.0411 85.856 77.8176 86.7057L74.9738 88.3686L67.4531 81.5531L77.089 63.9265L77.9547 61.8114Z" fill="url(#paint5_linear_2893_27443)"/>
<path d="M88.7772 59.1838C91.362 61.6908 88.6116 68.7081 82.6449 74.8565C76.6783 81.0048 69.7443 83.9608 67.1595 81.4538L64.9782 79.3408L86.5958 57.0708L88.7772 59.1838Z" fill="url(#paint6_linear_2893_27443)"/>
<path d="M80.4686 72.7205C86.4378 66.5704 89.1824 59.5521 86.5989 57.0445C84.0153 54.537 77.082 57.4898 71.1128 63.6398C65.1437 69.7898 62.3991 76.8082 64.9826 79.3157C67.5661 81.8233 74.4995 78.8705 80.4686 72.7205Z" fill="url(#paint7_linear_2893_27443)"/>
<path d="M86.5976 57.0636C86.5154 56.9849 86.4117 56.9212 86.3225 56.8572C88.4942 59.5558 85.7529 66.3096 79.9724 72.2637C74.1992 78.2176 67.5283 81.1535 64.7621 79.0675C64.8371 79.1537 64.8978 79.2549 64.9799 79.3336C67.5647 81.8406 74.4987 78.8846 80.4653 72.7363C86.432 66.588 89.1824 59.5706 86.5976 57.0636Z" fill="url(#paint8_linear_2893_27443)"/>
<path d="M71.4893 64.0204C77.2984 58.0364 84.0131 55.0923 86.7442 57.2523C86.6918 57.1948 86.6537 57.1224 86.5939 57.0651C84.0092 54.5582 77.0825 57.514 71.1085 63.6625C65.1419 69.8108 62.3915 76.8282 64.9763 79.3351C65.0435 79.3996 65.125 79.4491 65.1994 79.5061C62.9044 76.8613 65.6442 70.0344 71.482 64.0205L71.4893 64.0204Z" fill="url(#paint9_linear_2893_27443)"/>
<path d="M77.7616 70.1113C81.8029 65.9475 83.8709 61.3994 82.3805 59.9529C80.8901 58.5063 76.4058 60.7091 72.3644 64.8729C68.323 69.0367 66.2551 73.5848 67.7455 75.0313C69.2358 76.4779 73.7202 74.2751 77.7616 70.1113Z" fill="url(#paint10_linear_2893_27443)"/>
<path d="M76.9931 68.6369C77.0059 68.7023 77.0216 68.763 77.0299 68.8283C77.0767 69.1882 76.9713 69.6018 76.7386 70.0587C76.5742 70.3815 76.3615 70.6932 76.1105 70.9959C75.9838 71.1486 75.8514 71.2966 75.7097 71.4373C75.282 71.8625 74.8292 72.214 74.3457 72.4616C73.6851 72.8001 73.1437 72.8635 72.7212 72.6576C72.5874 72.5924 72.4805 72.4975 72.3807 72.3947C72.357 72.3703 72.3565 72.3708 72.3126 72.4161C72.0506 72.6862 71.7887 72.9562 71.5267 73.2263C71.4866 73.2676 71.4858 73.2679 71.464 73.2464C71.3421 73.126 71.2201 73.0056 71.0981 72.8852C71.0769 72.8643 71.0772 72.8638 71.115 72.8248C71.3807 72.5509 71.646 72.277 71.9121 72.0036C71.9395 71.9754 71.9446 71.9625 71.9285 71.947C71.7336 71.7563 71.5399 71.5644 71.3457 71.3732C71.3258 71.3535 71.3258 71.3535 71.2885 71.392C71.0239 71.6648 70.7591 71.9378 70.4945 72.2106C70.4558 72.2505 70.4554 72.2509 70.4344 72.23C70.3118 72.1091 70.1894 71.9883 70.0669 71.8673C70.046 71.8467 70.0462 71.8462 70.0853 71.806C70.3481 71.535 70.611 71.2639 70.8737 70.9931C70.9021 70.9639 70.908 70.9411 70.8916 70.9249C70.6291 70.6659 70.3667 70.4068 70.1041 70.1477C70.0985 70.1421 70.0897 70.1384 70.0885 70.1298C70.0873 70.122 70.0925 70.1089 70.0983 70.0982C70.1026 70.0904 70.1123 70.0829 70.1196 70.0754C70.5038 69.6793 70.888 69.2833 71.2721 68.8872C71.3019 68.8565 71.3254 68.8496 71.3426 68.8664C71.512 69.0336 71.6813 69.2007 71.8506 69.3679C71.8653 69.3823 71.8858 69.376 71.9121 69.349C73.4368 67.7771 74.9615 66.2051 76.486 64.6333C76.5118 64.6067 76.5174 64.5862 76.5027 64.5717C76.3319 64.4031 76.1609 64.2344 75.9901 64.0658C75.969 64.0449 75.969 64.0449 76.007 64.0058C76.3949 63.6059 76.7827 63.2061 77.1705 62.8063C77.2081 62.7675 77.2083 62.7673 77.23 62.7887C77.4951 63.0503 77.76 63.3118 78.0251 63.5735C78.0405 63.5887 78.0623 63.5818 78.0904 63.5528C78.3561 63.2789 78.6215 63.0052 78.8872 62.7313C78.9257 62.6916 78.9257 62.6916 78.9467 62.7123C79.0697 62.8338 79.1922 62.9557 79.3164 63.0759C79.3322 63.0914 79.3281 63.1042 79.3005 63.1326C79.0315 63.4089 78.7635 63.6856 78.495 63.9624C78.4704 63.9878 78.4651 64.0076 78.4793 64.0218C78.6582 64.1987 78.8371 64.3756 79.0157 64.553C79.0322 64.5692 79.0466 64.5877 79.0609 64.606C79.0697 64.6172 79.0801 64.6141 79.0981 64.5951C79.1426 64.5483 79.188 64.5021 79.2331 64.4556C79.4629 64.2187 79.6929 63.9822 79.922 63.7446C79.9504 63.7153 79.9621 63.7128 79.9773 63.7282C80.0993 63.8507 80.2228 63.9715 80.3458 64.093C80.3661 64.113 80.3663 64.1132 80.3292 64.1515C80.0158 64.4746 79.7027 64.7979 79.3887 65.1204C79.358 65.152 79.3493 65.1708 79.3554 65.1978C79.4277 65.5133 79.4048 65.8748 79.2536 66.2967C79.1193 66.6718 78.9044 67.041 78.6058 67.4007C78.1361 67.9663 77.6049 68.3657 77.0231 68.6234C77.0138 68.6275 77.0044 68.6319 76.9932 68.637L76.9931 68.6369ZM73.5171 69.2128C73.2358 69.5028 72.9547 69.7926 72.6734 70.0826C72.6245 70.1331 72.621 70.1282 72.6515 70.1583C72.8594 70.3636 73.0668 70.5693 73.2756 70.7736C73.3302 70.8271 73.3846 70.8812 73.4469 70.9262C73.5537 71.0033 73.6886 71.0427 73.8563 71.0302C74.2128 71.0036 74.5678 70.8043 74.9068 70.4217C75.1539 70.1428 75.2857 69.8607 75.3157 69.5896C75.3431 69.3414 75.2752 69.1613 75.1458 69.0301C74.9078 68.7885 74.6635 68.5533 74.4226 68.3145C74.4078 68.2998 74.3959 68.306 74.3714 68.3312C74.0869 68.6253 73.8019 68.919 73.517 69.2127L73.5171 69.2128ZM76.3898 66.251C76.2437 66.4017 76.0976 66.5523 75.9514 66.7031C75.8557 66.8017 75.7604 66.9005 75.6643 66.9986C75.6444 67.0192 75.6397 67.0307 75.6514 67.0419C75.6672 67.0568 75.6791 67.0755 75.6946 67.0908C75.8664 67.2635 76.0332 67.4415 76.2357 67.5818C76.3053 67.6298 76.3862 67.6611 76.4903 67.6612C76.8755 67.6614 77.3651 67.3096 77.6134 66.8505C77.759 66.5811 77.7844 66.3592 77.7301 66.1708C77.6912 66.0354 77.609 65.9382 77.5219 65.8466C77.4064 65.7249 77.282 65.6122 77.1611 65.4961C77.1408 65.4768 77.1401 65.4775 77.1037 65.5151C76.8656 65.7605 76.6276 66.0059 76.3895 66.2514L76.3898 66.251Z" fill="#683CD3"/>
<path d="M76.5942 68.2292C76.6052 68.2929 76.6191 68.3518 76.6258 68.4154C76.6634 68.7659 76.5513 69.1722 76.314 69.6239C76.1464 69.9429 75.9317 70.2523 75.68 70.5537C75.553 70.7058 75.4204 70.8533 75.2791 70.994C74.8521 71.419 74.4024 71.7727 73.9251 72.0256C73.2729 72.3714 72.7432 72.4457 72.3354 72.2541C72.2063 72.1935 72.1042 72.1032 72.0091 72.0051C71.9865 71.9818 71.986 71.9823 71.9421 72.0275C71.6804 72.2974 71.4189 72.567 71.1571 72.8369C71.1171 72.8782 71.1163 72.8784 71.0955 72.8579C70.9792 72.7432 70.8628 72.6283 70.7465 72.5135C70.7263 72.4935 70.7266 72.4931 70.7644 72.4541C71.0297 72.1805 71.2948 71.9069 71.5606 71.6338C71.588 71.6056 71.5932 71.5929 71.5778 71.5781C71.3919 71.3963 71.2072 71.2133 71.0221 71.0309C71.0031 71.0121 71.0031 71.0121 70.9658 71.0506C70.7015 71.3231 70.437 71.5958 70.1726 71.8683C70.134 71.9082 70.1336 71.9085 70.1135 71.8887C69.9967 71.7733 69.8799 71.6581 69.763 71.5427C69.7431 71.5231 69.7434 71.5226 69.7824 71.4824C70.045 71.2117 70.3076 70.9409 70.57 70.6704C70.5983 70.6412 70.6046 70.6189 70.5889 70.6034C70.3386 70.3563 70.0883 70.1093 69.8379 69.8621C69.8326 69.8568 69.8241 69.8534 69.8231 69.8451C69.8222 69.8374 69.8275 69.8245 69.8334 69.8139C69.8377 69.8063 69.8474 69.7987 69.8547 69.7912C70.2384 69.3955 70.6222 68.9999 71.006 68.6042C71.0357 68.5736 71.0588 68.5663 71.0752 68.5824C71.2368 68.7418 71.3982 68.9011 71.5597 69.0606C71.5737 69.0744 71.5938 69.0678 71.6201 69.0408C73.1432 67.4705 74.6663 65.9002 76.1892 64.3301C76.2149 64.3036 76.2208 64.2834 76.2068 64.2695C76.0439 64.1087 75.8809 63.9478 75.718 63.787C75.6978 63.7672 75.6978 63.7672 75.7358 63.7281C76.1232 63.3286 76.5106 62.9292 76.898 62.5298C76.9356 62.4911 76.9358 62.4909 76.9565 62.5113C77.2093 62.7608 77.462 63.0102 77.7148 63.2598C77.7295 63.2743 77.7509 63.2671 77.7789 63.2381C78.0443 62.9645 78.3095 62.6911 78.5749 62.4175C78.6134 62.3778 78.6134 62.3778 78.6334 62.3976C78.7507 62.5134 78.8675 62.6297 78.986 62.7443C79.001 62.7591 78.9968 62.7717 78.9691 62.8C78.7005 63.076 78.4327 63.3525 78.1646 63.6289C78.14 63.6543 78.1344 63.6737 78.1479 63.6873C78.3185 63.856 78.4891 64.0248 78.6595 64.194C78.6751 64.2094 78.6888 64.2271 78.7024 64.2447C78.7107 64.2554 78.7209 64.2522 78.7389 64.2332C78.7834 64.1865 78.8287 64.1403 78.8738 64.0938C79.1033 63.8572 79.333 63.6209 79.5619 63.3837C79.5903 63.3544 79.6018 63.3517 79.6163 63.3663C79.7325 63.4832 79.8504 63.5985 79.9677 63.7143C79.9871 63.7334 79.9872 63.7336 79.9502 63.7718C79.6371 64.0945 79.3244 64.4175 79.0107 64.7396C78.98 64.7713 78.9711 64.7898 78.9765 64.8161C79.04 65.1225 79.0095 65.4762 78.8525 65.8918C78.713 66.2613 78.4951 66.6268 78.1956 66.985C77.7246 67.5481 77.1973 67.9504 76.6238 68.2154C76.6146 68.2196 76.6053 68.2241 76.5943 68.2293L76.5942 68.2292ZM73.1893 68.8711C72.9083 69.1608 72.6275 69.4503 72.3466 69.74C72.2977 69.7904 72.2944 69.7857 72.3235 69.8144C72.5218 70.0102 72.7195 70.2064 72.9187 70.4012C72.9707 70.4523 73.0226 70.5038 73.0824 70.5464C73.1849 70.6193 73.3157 70.6546 73.4796 70.6386C73.8281 70.6045 74.179 70.4017 74.5183 70.0203C74.7657 69.7422 74.9006 69.4636 74.936 69.1981C74.9683 68.9551 74.9061 68.7807 74.7828 68.6555C74.5559 68.4249 74.3228 68.2007 74.0931 67.973C74.0789 67.959 74.0672 67.9653 74.0428 67.9905C73.7585 68.2843 73.4738 68.5776 73.1892 68.871L73.1893 68.8711ZM76.059 65.9125C75.9131 66.063 75.7671 66.2134 75.621 66.3641C75.5255 66.4625 75.4303 66.5613 75.3343 66.6593C75.3144 66.6798 75.3095 66.6912 75.3207 66.7019C75.3358 66.7161 75.347 66.7341 75.3617 66.7486C75.5255 66.9134 75.6843 67.0835 75.8787 67.2159C75.9456 67.2613 76.0239 67.2899 76.1254 67.2877C76.5013 67.2791 76.9869 66.9242 77.2395 66.4701C77.3877 66.2036 77.4174 65.9864 77.3687 65.8036C77.3338 65.6722 77.2557 65.5791 77.1728 65.4917C77.0628 65.3754 76.9439 65.2682 76.8285 65.1575C76.8092 65.1391 76.8085 65.1398 76.7721 65.1773C76.5343 65.4225 76.2965 65.6677 76.0587 65.9129L76.059 65.9125Z" fill="url(#paint11_linear_2893_27443)"/>
<path d="M72.853 65.3385C76.6564 61.4165 80.8552 59.2425 82.5806 60.2088C82.5201 60.115 82.4597 60.0284 82.3851 59.9568C80.891 58.51 76.4074 60.7119 72.3675 64.8731C68.3276 69.0342 66.2645 73.5856 67.7512 75.0326C67.8409 75.1185 67.9375 75.1897 68.0411 75.246C66.9742 73.578 69.0209 69.2904 72.853 65.3385Z" fill="url(#paint12_linear_2893_27443)"/>
<path d="M87.3615 55.2578H86.6797V59.3328H87.3615V55.2578Z" fill="url(#paint13_linear_2893_27443)"/>
<path d="M89.0547 57.6384V56.957H84.9772V57.6384H89.0547Z" fill="url(#paint14_linear_2893_27443)"/>
<path d="M42.5645 104.396L17.1378 89.7166C14.3306 88.0952 12.6016 85.0997 12.6016 81.8595V52.0015C12.6016 48.2692 16.6511 45.946 19.8725 47.8309L45.3207 62.7169C48.1037 64.3438 49.8139 67.3258 49.8139 70.5498V100.214C49.8139 103.933 45.7885 106.259 42.5672 104.398L42.5645 104.396Z" fill="url(#paint15_linear_2893_27443)"/>
<path d="M43.5006 102.586L17.8158 87.7595C15.8341 86.6167 14.6133 84.5005 14.6133 82.2122V52.0933C14.6133 49.8803 17.0172 48.5009 18.9264 49.6195L44.63 64.6561C46.5929 65.8043 47.8003 67.9097 47.8003 70.1845V100.107C47.8003 102.315 45.4125 103.694 43.5006 102.589V102.586Z" fill="url(#paint16_linear_2893_27443)"/>
<path d="M43.5006 102.586L17.8158 87.7595C15.8341 86.6167 14.6133 84.5005 14.6133 82.2122V52.0933C14.6133 49.8803 17.0172 48.5009 18.9264 49.6195L44.63 64.6561C46.5929 65.8043 47.8003 67.9097 47.8003 70.1845V100.107C47.8003 102.315 45.4125 103.694 43.5006 102.589V102.586Z" fill="url(#paint17_linear_2893_27443)"/>
<path d="M44.2396 100.417L19.582 86.182C17.8207 85.1656 16.7344 83.286 16.7344 81.2505V52.3524C16.7344 51.3198 17.8557 50.6772 18.7484 51.1988L44.4171 66.2139C45.5518 66.8781 46.2482 68.0935 46.2482 69.4057V99.2583C46.2482 100.288 45.135 100.931 44.2423 100.417H44.2396Z" fill="url(#paint18_linear_2893_27443)"/>
<path d="M44.4165 66.2129L18.7479 51.1978C18.0998 50.8187 17.3308 51.058 16.957 51.6146C17.2582 51.5554 17.5862 51.5958 17.8874 51.7706L43.5561 66.7856C44.6908 67.4498 45.3873 68.6652 45.3873 69.9774V99.8301C45.3873 100.11 45.3012 100.362 45.1641 100.57C45.7556 100.451 46.2477 99.9403 46.2477 99.2573V69.4047C46.2477 68.0898 45.5513 66.8744 44.4165 66.2129Z" fill="url(#paint19_linear_2893_27443)"/>
<path d="M17.5893 55.5176H17.4145C16.6765 55.5176 16.0781 56.1159 16.0781 56.854V59.0993C16.0781 59.8373 16.6765 60.4357 17.4145 60.4357H17.5893C18.3274 60.4357 18.9257 59.8373 18.9257 59.0993V56.854C18.9257 56.1159 18.3274 55.5176 17.5893 55.5176Z" fill="#8EB1FD"/>
<path d="M16.8057 56.0273H16.647C15.9876 56.0273 15.4531 56.5619 15.4531 57.2212V59.5149C15.4531 60.1743 15.9876 60.7088 16.647 60.7088H16.8057C17.465 60.7088 17.9996 60.1743 17.9996 59.5149V57.2212C17.9996 56.5619 17.465 56.0273 16.8057 56.0273Z" fill="#AAD3F9"/>
<path d="M17.5893 75.6777H17.4145C16.6765 75.6777 16.0781 76.2761 16.0781 77.0141V79.2594C16.0781 79.9975 16.6765 80.5958 17.4145 80.5958H17.5893C18.3274 80.5958 18.9257 79.9975 18.9257 79.2594V77.0141C18.9257 76.2761 18.3274 75.6777 17.5893 75.6777Z" fill="#8EB1FD"/>
<path d="M16.8057 76.1895H16.647C15.9876 76.1895 15.4531 76.724 15.4531 77.3833V79.677C15.4531 80.3364 15.9876 80.8709 16.647 80.8709H16.8057C17.465 80.8709 17.9996 80.3364 17.9996 79.677V77.3833C17.9996 76.724 17.465 76.1895 16.8057 76.1895Z" fill="#AAD3F9"/>
<path d="M38.0245 87.2284C41.7836 84.9384 41.7269 77.9865 37.8977 71.7011C34.0686 65.4156 27.9171 62.1767 24.158 64.4668C20.3989 66.7568 20.4557 73.7087 24.2848 79.9941C28.114 86.2796 34.2654 89.5185 38.0245 87.2284Z" fill="url(#paint20_linear_2893_27443)"/>
<path d="M31.4011 80.0296C29.0321 80.0377 26.6631 80.0296 24.2969 80.0189C28.1259 86.2895 34.2675 89.5189 38.0213 87.2333C40.1617 85.9292 41.0625 83.1138 40.7371 79.7715C37.626 79.8952 34.5149 80.0189 31.4011 80.0296Z" fill="url(#paint21_linear_2893_27443)"/>
<path d="M35.9945 86.1264C39.2412 84.1485 39.1925 78.1447 35.8856 72.7166C32.5788 67.2885 27.2661 64.4915 24.0193 66.4694C20.7726 68.4474 20.8213 74.4511 24.1282 79.8793C27.435 85.3074 32.7477 88.1043 35.9945 86.1264Z" fill="url(#paint22_linear_2893_27443)"/>
<path fill-rule="evenodd" clip-rule="evenodd" d="M23 67.3361C23.1706 67.19 23.353 67.0573 23.5471 66.939C26.7939 64.9611 32.1066 67.7581 35.4134 73.1862C38.3276 77.9698 38.7115 83.2005 36.5394 85.7289C39.2215 83.432 38.9925 77.8196 35.8834 72.7161C32.5766 67.288 27.2639 64.4911 24.0172 66.469C23.6317 66.7038 23.2926 66.9954 23 67.3361Z" fill="url(#paint23_linear_2893_27443)"/>
<path d="M31.4675 83.2783C32.4597 83.1734 33.3255 82.5307 33.6724 81.5977C34.3366 79.8095 33.8956 77.0964 32.3602 74.5741C30.763 71.9551 28.4397 70.288 26.4983 70.167C25.6083 70.1105 24.7559 70.5515 24.2369 71.2775L22.0508 74.3241L27.8374 83.6655L31.4648 83.2809L31.4675 83.2783Z" fill="url(#paint24_linear_2893_27443)"/>
<path d="M28.3873 83.4278C29.965 82.4667 29.9412 79.549 28.3342 76.9111C26.7271 74.2731 24.1453 72.9138 22.5676 73.8749C20.9899 74.8361 21.0137 77.7537 22.6208 80.3917C24.2278 83.0297 26.8096 84.389 28.3873 83.4278Z" fill="#F2EEFF"/>
<path fill-rule="evenodd" clip-rule="evenodd" d="M21.9648 74.4331C22.0078 74.4022 22.052 74.3728 22.0976 74.345C23.6753 73.3838 26.257 74.7432 27.8641 77.3811C29.2297 79.6227 29.4521 82.0663 28.52 83.3397C29.9623 82.2984 29.8948 79.4729 28.3342 76.9111C26.7271 74.2731 24.1453 72.9138 22.5676 73.875C22.3306 74.0194 22.1297 74.208 21.9648 74.4331Z" fill="url(#paint25_linear_2893_27443)"/>
<path fill-rule="evenodd" clip-rule="evenodd" d="M28.9888 82.8695C28.9459 82.9004 28.9016 82.9298 28.8561 82.9576C27.2783 83.9188 24.6966 82.5594 23.0895 79.9215C21.7239 77.6799 21.5016 75.2363 22.4336 73.9629C20.9913 75.0042 21.0588 77.8298 22.6195 80.3915C24.2265 83.0295 26.8083 84.3888 28.386 83.4277C28.6231 83.2832 28.824 83.0946 28.9888 82.8695Z" fill="url(#paint26_linear_2893_27443)"/>
<path d="M34.2148 41.6732L36.1294 40.4336L58.6627 53.276L56.6729 54.5559L34.2148 41.6732Z" fill="url(#paint27_linear_2893_27443)"/>
<path d="M58.8642 41.8689C51.1666 44.3789 42.4945 38.9551 39.4944 29.7545C36.4943 20.5539 40.3023 11.0606 47.9999 8.55057C55.6974 6.0406 64.3696 11.4644 67.3696 20.665C70.3697 29.8656 66.5617 39.3589 58.8642 41.8689Z" fill="url(#paint28_linear_2893_27443)"/>
<path d="M56.8524 42.8884C49.1549 45.3984 40.4828 39.9746 37.4827 30.774C34.4826 21.5734 38.2906 12.0801 45.9882 9.57011C53.6857 7.06013 62.3578 12.484 65.3579 21.6846C68.358 30.8852 64.55 40.3785 56.8524 42.8884Z" fill="#3AB5FB"/>
<path d="M57.5243 42.5506C49.8268 45.0605 41.1546 39.6367 38.1546 30.4361C35.1545 21.2355 38.9625 11.7422 46.66 9.23221C54.3576 6.72224 63.0297 12.1461 66.0298 21.3467C69.0299 30.5473 65.2219 40.0406 57.5243 42.5506Z" fill="url(#paint29_linear_2893_27443)"/>
<path d="M56.8524 42.8884C49.1549 45.3984 40.4828 39.9746 37.4827 30.774C34.4826 21.5734 38.2906 12.0801 45.9882 9.57011C53.6857 7.06013 62.3578 12.484 65.3579 21.6846C68.358 30.8852 64.55 40.3785 56.8524 42.8884Z" fill="url(#paint30_linear_2893_27443)"/>
<path d="M55.166 37.7269C49.8506 39.4602 43.8633 35.7181 41.7929 29.3687C39.7226 23.0194 42.3532 16.4672 47.6686 14.734C52.984 13.0008 58.9713 16.7429 61.0417 23.0922C63.112 29.4415 60.4814 35.9937 55.166 37.7269Z" fill="url(#paint31_linear_2893_27443)"/>
<path d="M41.7969 29.3723C40.7873 26.2858 40.8986 23.1468 41.8857 20.5462C41.2195 22.9356 41.2418 25.6665 42.1251 28.3697C44.1956 34.7209 50.1859 38.4637 55.4954 36.7362C58.2257 35.8488 60.2392 33.6812 61.2758 30.9291C60.3813 34.1537 58.2149 36.7489 55.1594 37.7428C49.8422 39.4741 43.8596 35.7274 41.7891 29.3762L41.7969 29.3723Z" fill="url(#paint32_linear_2893_27443)"/>
<path d="M60.728 23.7682C58.6575 17.417 52.6672 13.6742 47.3577 15.4016C45.038 16.1588 43.2391 17.8287 42.1023 19.9995C43.1908 17.5031 45.1124 15.5571 47.6645 14.7211C52.9817 12.9897 58.9642 16.7364 61.0347 23.0876C62.1982 26.6699 61.8762 30.3144 60.4131 33.1269C61.5974 30.4167 61.7968 27.0677 60.7241 23.7604L60.728 23.7682Z" fill="url(#paint33_linear_2893_27443)"/>
<path d="M46.2557 25.2551L56.2637 28.1874L50.4116 29.6177L46.2557 25.2551Z" fill="#683CD3"/>
<path d="M54.1052 17.0047L50.7628 28.4039L56.6148 26.9736L54.1052 17.0047Z" fill="#6889FF"/>
<path d="M52.3668 22.9178L50.7616 28.4034L56.6136 26.973L52.3668 22.9178Z" fill="url(#paint34_linear_2893_27443)"/>
<path d="M54.1055 17.0039L50.763 28.4031L46.6154 24.0416L54.1055 17.0039Z" fill="url(#paint35_linear_2893_27443)"/>
<path d="M52.3672 22.918L50.762 28.4036L46.6143 24.0421L52.3672 22.918Z" fill="url(#paint36_linear_2893_27443)"/>
<path d="M48.6988 35.4593L50.4097 29.6178L56.2617 28.1875L48.6988 35.4593Z" fill="#24BDFB"/>
<path d="M48.6988 35.4593L50.4097 29.6178L56.2617 28.1875L48.6988 35.4593Z" fill="url(#paint37_linear_2893_27443)"/>
<path d="M48.7012 35.4584L50.4121 29.617L46.2562 25.2544L48.7012 35.4584Z" fill="url(#paint38_radial_2893_27443)"/>
<path d="M55.3131 8.37361L56.0312 8.00977L58.2058 12.3016L57.4877 12.6655L55.3131 8.37361Z" fill="url(#paint39_linear_2893_27443)"/>
<path d="M54.8011 11.7841L54.4375 11.0664L58.732 8.89052L59.0956 9.6082L54.8011 11.7841Z" fill="url(#paint40_linear_2893_27443)"/>
<path d="M30.1721 34.4499C27.7603 36.2934 22.8038 33.8607 19.1029 29.0193C15.4021 24.1778 14.3617 18.7597 16.7735 16.9162L18.8096 15.3625L32.2081 32.8962L30.1721 34.4499Z" fill="url(#paint41_linear_2893_27443)"/>
<path d="M21.1437 27.4631C24.8431 32.3037 29.7972 34.7336 32.2091 32.8903C34.621 31.0471 33.5773 25.6287 29.8779 20.7881C26.1786 15.9475 21.2245 13.5177 18.8126 15.3609C16.4007 17.2042 17.4444 22.6225 21.1437 27.4631Z" fill="url(#paint42_linear_2893_27443)"/>
<path d="M21.5749 27.2733C17.874 22.4318 16.8315 17.0087 19.2454 15.1702C19.3656 15.0758 19.4946 15.0015 19.6258 14.9322C19.3286 15.0321 19.0562 15.1751 18.8136 15.3589C16.4018 17.2024 17.4422 22.6206 21.143 27.462C24.6601 32.0609 29.3079 34.485 31.8318 33.1307C29.2362 34.0199 24.8987 31.6217 21.5799 27.2711L21.5749 27.2733Z" fill="url(#paint43_linear_2893_27443)"/>
<path d="M23.1379 25.9381C25.674 29.2566 28.9307 31.029 30.412 29.897C31.8932 28.7649 31.0382 25.1571 28.5021 21.8387C25.966 18.5202 22.7093 16.7478 21.2281 17.8798C19.7468 19.0119 20.6019 22.6197 23.1379 25.9381Z" fill="url(#paint44_linear_2893_27443)"/>
<path d="M25.0154 24.5988C24.7862 24.3018 24.7183 23.9694 24.8681 23.8569C25.0188 23.7436 25.3149 23.8878 25.5477 24.1866C25.7805 24.4854 25.845 24.8174 25.6981 24.9307C25.5484 25.0462 25.2482 24.9006 25.0161 24.5998L25.0154 24.5988Z" fill="url(#paint45_linear_2893_27443)"/>
<path d="M26.8432 25.7154C26.6959 25.8291 26.393 25.681 26.1645 25.3849C25.9324 25.0841 25.869 24.7574 26.018 24.6409C26.1512 24.5366 26.4424 24.6477 26.6917 24.966C26.9306 25.2707 26.9949 25.6014 26.8439 25.7164L26.8432 25.7154Z" fill="url(#paint46_linear_2893_27443)"/>
<path d="M26.9982 23.9288C26.8504 24.0429 26.5463 23.8942 26.3176 23.5968C26.0877 23.2989 26.0225 22.9659 26.1708 22.8515C26.3172 22.7385 26.6257 22.893 26.8566 23.1932C27.0813 23.4845 27.1446 23.8159 26.9982 23.9288Z" fill="url(#paint47_linear_2893_27443)"/>
<path d="M25.7777 23.0526C25.6304 23.1662 25.328 23.0208 25.1004 22.7257C24.8668 22.423 24.8004 22.0954 24.9497 21.9803C25.0984 21.8655 25.4018 22.0132 25.6332 22.3131C25.8601 22.6072 25.9251 22.9389 25.7777 23.0526Z" fill="url(#paint48_linear_2893_27443)"/>
<path d="M25.1623 23.5274C25.0155 23.6437 24.7148 23.4985 24.4824 23.1994C24.2531 22.9041 24.1852 22.5716 24.3301 22.4567C24.4779 22.3397 24.7804 22.4834 25.0093 22.7791C25.2548 23.0972 25.3032 23.4232 25.162 23.5261L25.1623 23.5274Z" fill="url(#paint49_linear_2893_27443)"/>
<path d="M27.4626 25.2367C27.3112 25.3489 27.0097 25.1997 26.779 24.8978C26.5505 24.5987 26.49 24.2728 26.641 24.1609C26.7889 24.0499 27.0947 24.2019 27.321 24.498C27.5494 24.7971 27.6124 25.1272 27.4629 25.238L27.4626 25.2367Z" fill="url(#paint50_linear_2893_27443)"/>
<path d="M27.6355 24.494C27.5028 24.322 27.463 24.1304 27.5471 24.0639C27.6348 23.9962 27.8107 24.0783 27.9472 24.2581C28.0882 24.4438 28.1113 24.6207 28.033 24.6857C27.9479 24.7559 27.7725 24.6705 27.6363 24.495L27.6355 24.494Z" fill="url(#paint51_linear_2893_27443)"/>
<path d="M24.2186 23.6012C24.1284 23.6678 23.9544 23.5812 23.8179 23.4013C23.691 23.234 23.6481 23.0463 23.737 22.9761C23.824 22.9075 24.0022 22.9985 24.1355 23.1732C24.2673 23.3459 24.3042 23.5367 24.2178 23.6003L24.2186 23.6012Z" fill="url(#paint52_linear_2893_27443)"/>
<path d="M23.9832 21.6874C23.849 21.5134 23.8099 21.3228 23.8962 21.2562C23.982 21.19 24.1584 21.2747 24.2912 21.4467C24.4254 21.6207 24.4638 21.8134 24.3777 21.8813C24.2938 21.946 24.1159 21.8594 23.9839 21.6883L23.9832 21.6874Z" fill="url(#paint53_linear_2893_27443)"/>
<path d="M27.87 26.4087C27.7779 26.4736 27.6041 26.3854 27.4659 26.2023C27.3382 26.0339 27.3049 25.8419 27.3918 25.781C27.4823 25.7188 27.6586 25.8083 27.7916 25.9847C27.9195 26.1543 27.9552 26.3476 27.8688 26.4081L27.87 26.4087Z" fill="url(#paint54_linear_2893_27443)"/>
<path d="M26.1223 21.8178C26.2563 21.9934 26.2913 22.1827 26.2033 22.249C26.1172 22.3139 25.9395 22.2226 25.804 22.045C25.6759 21.877 25.6411 21.6831 25.7282 21.6205C25.8141 21.5573 25.992 21.6469 26.123 21.8187L26.1223 21.8178Z" fill="url(#paint55_linear_2893_27443)"/>
<path d="M25.6519 25.8485C25.5184 25.6755 25.4791 25.4835 25.5642 25.4163C25.6486 25.3512 25.8303 25.4379 25.9606 25.6088C26.1031 25.7963 26.1277 25.9782 26.0459 26.0398C25.9587 26.1071 25.7874 26.0231 25.6512 25.8475L25.6519 25.8485Z" fill="url(#paint56_linear_2893_27443)"/>
<path d="M27.4246 22.6673C27.5323 22.8049 27.5653 22.962 27.4978 23.0156C27.4299 23.0695 27.2855 23.0016 27.1809 22.866C27.0741 22.7276 27.0397 22.5687 27.1069 22.5168C27.1775 22.4623 27.3158 22.5273 27.4253 22.6682L27.4246 22.6673Z" fill="url(#paint57_linear_2893_27443)"/>
<path d="M23.5075 22.1555C23.4388 22.2084 23.296 22.1377 23.1897 21.9989C23.0829 21.8605 23.0523 21.7016 23.1225 21.6506C23.1926 21.5995 23.3357 21.6716 23.4438 21.8136C23.5474 21.9499 23.5764 22.1038 23.5075 22.1555Z" fill="url(#paint58_linear_2893_27443)"/>
<path d="M24.559 20.6181C24.6272 20.5655 24.768 20.6347 24.8768 20.7746C24.9826 20.9107 25.0131 21.0666 24.9447 21.1209C24.8765 21.1735 24.7339 21.1041 24.6271 20.9657C24.5181 20.8244 24.4884 20.6725 24.559 20.6181Z" fill="url(#paint59_linear_2893_27443)"/>
<path d="M24.3757 25.0204C24.2679 24.8797 24.2391 24.7271 24.31 24.674C24.3784 24.6227 24.5232 24.695 24.629 24.8342C24.7346 24.972 24.7631 25.1263 24.6937 25.1783C24.6248 25.2299 24.482 25.1592 24.3757 25.0204Z" fill="url(#paint60_linear_2893_27443)"/>
<path d="M28.6104 25.6916C28.7172 25.83 28.7482 25.9855 28.68 26.0382C28.6099 26.0922 28.4676 26.0211 28.3571 25.8779C28.2555 25.7462 28.2252 25.5887 28.2915 25.5375C28.3616 25.4835 28.5021 25.5513 28.6104 25.6916Z" fill="url(#paint61_linear_2893_27443)"/>
<path d="M27.1732 26.7281C27.28 26.8665 27.3119 27.0213 27.2421 27.0737C27.1736 27.1249 27.0404 27.0667 26.9248 26.9198C26.8166 26.7825 26.787 26.6259 26.8545 26.5723C26.9229 26.518 27.0637 26.5872 27.174 26.7291L27.1732 26.7281Z" fill="url(#paint62_linear_2893_27443)"/>
<path d="M23.046 20.3898C22.9459 20.2601 22.9182 20.1158 22.9836 20.0684C23.048 20.0218 23.1799 20.0872 23.278 20.2154C23.3759 20.3423 23.407 20.49 23.3418 20.5357C23.2691 20.5872 23.1368 20.5114 23.046 20.3898Z" fill="url(#paint63_linear_2893_27443)"/>
<path d="M23.0939 23.218C23.0305 23.2669 22.8997 23.2038 22.8006 23.0764C22.7015 22.9489 22.6723 22.8027 22.737 22.7544C22.8004 22.7054 22.9344 22.7707 23.0308 22.8956C23.1302 23.0244 23.159 23.1693 23.0947 23.219L23.0939 23.218Z" fill="url(#paint64_linear_2893_27443)"/>
<path d="M25.8764 26.6988C25.9748 26.8284 26.0032 26.9706 25.9395 27.0182C25.8751 27.0678 25.7406 26.9999 25.6407 26.8685C25.5445 26.7418 25.518 26.5951 25.5822 26.5502C25.6483 26.5038 25.7787 26.5703 25.8764 26.6988Z" fill="url(#paint65_linear_2893_27443)"/>
<path d="M28.971 24.5895C29.0712 24.7192 29.0997 24.8597 29.0358 24.909C28.9705 24.9594 28.8421 24.8975 28.7412 24.7668C28.6441 24.6409 28.6135 24.4958 28.675 24.4483C28.7413 24.3972 28.869 24.4582 28.9718 24.5904L28.971 24.5895Z" fill="url(#paint66_linear_2893_27443)"/>
<path d="M26.1891 21.1056C26.1247 21.1552 25.9946 21.0931 25.8936 20.9641C25.7967 20.8395 25.7659 20.6931 25.8274 20.6456C25.8932 20.5948 26.0208 20.6528 26.1211 20.7808C26.22 20.907 26.252 21.057 26.1891 21.1056Z" fill="url(#paint67_linear_2893_27443)"/>
<path d="M28.4944 27.4475C28.395 27.3187 28.3667 27.1795 28.4289 27.13C28.4957 27.0785 28.6234 27.1394 28.7249 27.2711C28.8236 27.3989 28.8527 27.5421 28.7892 27.591C28.7244 27.6411 28.596 27.5792 28.4944 27.4475Z" fill="url(#paint68_linear_2893_27443)"/>
<path d="M27.8913 22.3096C27.967 22.4076 27.9889 22.5149 27.9415 22.553C27.8928 22.5905 27.7929 22.5419 27.717 22.4425C27.6429 22.3464 27.6209 22.2361 27.6693 22.2003C27.7175 22.1631 27.8164 22.2125 27.8921 22.3105L27.8913 22.3096Z" fill="url(#paint69_linear_2893_27443)"/>
<path d="M23.9092 25.379C23.8335 25.281 23.8118 25.172 23.8602 25.1362C23.9093 25.0983 24.009 25.1486 24.0857 25.249C24.1594 25.3454 24.1805 25.4518 24.1329 25.4886C24.0838 25.5264 23.9855 25.478 23.9092 25.379Z" fill="url(#paint70_linear_2893_27443)"/>
<path d="M24.4279 19.7323C24.502 19.8284 24.5252 19.9393 24.4776 19.9761C24.4299 20.0129 24.3278 19.9644 24.2544 19.8692C24.181 19.7741 24.157 19.6622 24.2035 19.6248C24.2526 19.5869 24.351 19.6337 24.4279 19.7323Z" fill="url(#paint71_linear_2893_27443)"/>
<path d="M27.326 27.7175C27.3742 27.6803 27.4741 27.729 27.5482 27.8251C27.6231 27.9222 27.6446 28.0298 27.5972 28.0679C27.5485 28.1054 27.4489 28.0581 27.3725 27.9591C27.2983 27.863 27.2776 27.7563 27.3268 27.7184L27.326 27.7175Z" fill="url(#paint72_linear_2893_27443)"/>
<path d="M22.521 21.3789C22.4719 21.4168 22.3754 21.3716 22.3005 21.2745C22.2249 21.1765 22.2022 21.0682 22.2494 21.0318C22.2995 20.9932 22.4011 21.0421 22.4758 21.1408C22.5482 21.2367 22.5687 21.3421 22.5205 21.3792L22.521 21.3789Z" fill="url(#paint73_linear_2893_27443)"/>
<path d="M29.2801 26.3105C29.3287 26.273 29.4265 26.3217 29.5024 26.4211C29.5773 26.5182 29.5968 26.6243 29.5476 26.6622C29.5 26.699 29.4013 26.6509 29.3279 26.5558C29.2515 26.4568 29.2303 26.3504 29.2804 26.3118L29.2801 26.3105Z" fill="url(#paint74_linear_2893_27443)"/>
<path d="M30.4143 29.8939C30.4809 29.8409 30.533 29.7822 30.5901 29.7214C29.0303 30.5586 25.9502 28.8069 23.5299 25.6365C21.1075 22.461 20.2245 19.0314 21.4465 17.7497C21.3734 17.7877 21.3003 17.8256 21.2388 17.8764C19.7595 19.0074 20.6135 22.6171 23.1464 25.9357C25.6843 29.252 28.9423 31.0277 30.4215 29.8967L30.4143 29.8939Z" fill="url(#paint75_linear_2893_27443)"/>
<path d="M28.2061 22.0683C30.6495 25.2644 31.5262 28.7207 30.2659 29.9832C30.3139 29.9563 30.3692 29.9321 30.4128 29.8951C31.8921 28.7642 31.038 25.1544 28.5052 21.8359C25.9723 18.5173 22.7143 16.7417 21.23 17.8748C21.1764 17.9162 21.1271 17.9677 21.0828 18.0169C22.6226 17.0928 25.7516 18.847 28.2111 22.0661L28.2061 22.0683Z" fill="url(#paint76_linear_2893_27443)"/>
<g filter="url(#filter0_f_2893_27443)">
<path d="M49.2395 109.584C66.0504 109.584 79.6783 109.149 79.6783 108.612C79.6783 108.076 66.0504 107.641 49.2395 107.641C32.4287 107.641 18.8008 108.076 18.8008 108.612C18.8008 109.149 32.4287 109.584 49.2395 109.584Z" fill="url(#paint77_radial_2893_27443)"/>
</g>
<defs>
<filter id="filter0_f_2893_27443" x="16.8008" y="105.641" width="64.8789" height="5.94336" filterUnits="userSpaceOnUse" color-interpolation-filters="sRGB">
<feFlood flood-opacity="0" result="BackgroundImageFix"/>
<feBlend mode="normal" in="SourceGraphic" in2="BackgroundImageFix" result="shape"/>
<feGaussianBlur stdDeviation="1" result="effect1_foregroundBlur_2893_27443"/>
</filter>
<linearGradient id="paint0_linear_2893_27443" x1="49.8256" y1="62.7508" x2="47.4753" y2="27.9678" gradientUnits="userSpaceOnUse">
<stop stop-color="#F0C6FC"/>
<stop offset="1" stop-color="#B4AAFF"/>
</linearGradient>
<linearGradient id="paint1_linear_2893_27443" x1="57.6358" y1="101.027" x2="54.1908" y2="34.7735" gradientUnits="userSpaceOnUse">
<stop offset="0.567189" stop-color="#FADBEE"/>
<stop offset="1" stop-color="#BFA2FF"/>
</linearGradient>
<linearGradient id="paint2_linear_2893_27443" x1="39.952" y1="29.1429" x2="49.6045" y2="45.7042" gradientUnits="userSpaceOnUse">
<stop stop-color="#8757ED"/>
<stop offset="1" stop-color="#865EEE" stop-opacity="0"/>
</linearGradient>
<linearGradient id="paint3_linear_2893_27443" x1="63.4567" y1="98.0042" x2="61.1065" y2="52.8802" gradientUnits="userSpaceOnUse">
<stop stop-color="#9A8DFA"/>
<stop offset="0.520833" stop-color="#97B1F7"/>
<stop offset="1" stop-color="#A0E3FE"/>
</linearGradient>
<linearGradient id="paint4_linear_2893_27443" x1="85.9023" y1="88.5752" x2="50.14" y2="85.6222" gradientUnits="userSpaceOnUse">
<stop stop-color="#84CEFF"/>
<stop offset="0.213542" stop-color="#8AB0FC"/>
<stop offset="1" stop-color="#D4C1FF"/>
</linearGradient>
<linearGradient id="paint5_linear_2893_27443" x1="62.0477" y1="79.2026" x2="86.4898" y2="89.3084" gradientUnits="userSpaceOnUse">
<stop stop-color="#2D11FC"/>
<stop offset="0.625" stop-color="#97B1F7"/>
<stop offset="1" stop-color="#A0E3FE" stop-opacity="0"/>
</linearGradient>
<linearGradient id="paint6_linear_2893_27443" x1="69.6948" y1="80.2149" x2="85.105" y2="65.518" gradientUnits="userSpaceOnUse">
<stop stop-color="#8674F1"/>
<stop offset="0.526042" stop-color="#8598F6"/>
<stop offset="1" stop-color="#A6D8FF"/>
</linearGradient>
<linearGradient id="paint7_linear_2893_27443" x1="67.1981" y1="68.7803" x2="85.2401" y2="67.5226" gradientUnits="userSpaceOnUse">
<stop stop-color="#BFA2FF"/>
<stop offset="0.41" stop-color="#AA9EFF"/>
<stop offset="0.71" stop-color="#B4C8FF"/>
<stop offset="1" stop-color="#ACE7FF"/>
</linearGradient>
<linearGradient id="paint8_linear_2893_27443" x1="74.753" y1="73.2297" x2="84.9235" y2="57.494" gradientUnits="userSpaceOnUse">
<stop stop-color="#7469D9"/>
<stop offset="0.11" stop-color="#858AE3"/>
<stop offset="0.19" stop-color="#93A7EC"/>
<stop offset="0.27" stop-color="#9FBEF3"/>
<stop offset="0.37" stop-color="#A8D0F8"/>
<stop offset="0.48" stop-color="#AEDCFC"/>
<stop offset="0.64" stop-color="#CDEDFF"/>
<stop offset="1" stop-color="#E3F6FF"/>
</linearGradient>
<linearGradient id="paint9_linear_2893_27443" x1="77.1275" y1="62.4382" x2="65.5688" y2="83.8453" gradientUnits="userSpaceOnUse">
<stop stop-color="#9A71FD"/>
<stop offset="0.07" stop-color="#9F8BFD"/>
<stop offset="0.14" stop-color="#A5A7FD"/>
<stop offset="0.23" stop-color="#AABEFE"/>
<stop offset="0.33" stop-color="#AED0FE"/>
<stop offset="0.46" stop-color="#B1DCFE"/>
<stop offset="0.62" stop-color="#B2E3FE"/>
<stop offset="1" stop-color="#B3E6FF"/>
</linearGradient>
<linearGradient id="paint10_linear_2893_27443" x1="86.2436" y1="58.3427" x2="58.7546" y2="80.8533" gradientUnits="userSpaceOnUse">
<stop stop-color="#84CEFF"/>
<stop offset="0.213542" stop-color="#8AB0FC"/>
<stop offset="0.3125" stop-color="#918CF9"/>
<stop offset="1" stop-color="#8E65EA"/>
</linearGradient>
<linearGradient id="paint11_linear_2893_27443" x1="76.5585" y1="62.768" x2="73.318" y2="73.1612" gradientUnits="userSpaceOnUse">
<stop stop-color="#BFA2FF"/>
<stop offset="0.41" stop-color="#AA9EFF"/>
<stop offset="0.71" stop-color="#B4C8FF"/>
<stop offset="1" stop-color="#ACE7FF"/>
</linearGradient>
<linearGradient id="paint12_linear_2893_27443" x1="67.1325" y1="67.5372" x2="82.7206" y2="67.2093" gradientUnits="userSpaceOnUse">
<stop stop-color="#E6E8FF"/>
<stop offset="0.05" stop-color="#C6CEF5" stop-opacity="0.97"/>
<stop offset="0.13" stop-color="#BDCEF5" stop-opacity="0.88"/>
<stop offset="0.22" stop-color="#ADCDF6" stop-opacity="0.73"/>
<stop offset="0.33" stop-color="#98CCF7" stop-opacity="0.53"/>
<stop offset="0.45" stop-color="#7DCBF9" stop-opacity="0.27"/>
<stop offset="0.56" stop-color="#61CAFB" stop-opacity="0"/>
<stop offset="0.62" stop-color="#76CBFA" stop-opacity="0.2"/>
<stop offset="0.7" stop-color="#91CDF9" stop-opacity="0.44"/>
<stop offset="0.77" stop-color="#A6CFF9" stop-opacity="0.64"/>
<stop offset="0.96" stop-color="white" stop-opacity="0.98"/>
</linearGradient>
<linearGradient id="paint13_linear_2893_27443" x1="87.0172" y1="55.5884" x2="87.0172" y2="59.1169" gradientUnits="userSpaceOnUse">
<stop stop-color="white" stop-opacity="0"/>
<stop offset="0.03" stop-color="#FEFEFE" stop-opacity="0.07"/>
<stop offset="0.13" stop-color="#FCFDFC" stop-opacity="0.35"/>
<stop offset="0.23" stop-color="#FAFCFA" stop-opacity="0.58"/>
<stop offset="0.32" stop-color="#F8FBF9" stop-opacity="0.76"/>
<stop offset="0.39" stop-color="#F7FBF8" stop-opacity="0.89"/>
<stop offset="0.46" stop-color="#F7FBF8" stop-opacity="0.97"/>
<stop offset="0.51" stop-color="#F7FBF8"/>
<stop offset="0.55" stop-color="#F6FAF7" stop-opacity="0.97"/>
<stop offset="0.61" stop-color="#F5FAF6" stop-opacity="0.88"/>
<stop offset="0.7" stop-color="#F3F9F4" stop-opacity="0.75"/>
<stop offset="0.79" stop-color="#F0F7F2" stop-opacity="0.55"/>
<stop offset="0.89" stop-color="#EDF6EF" stop-opacity="0.3"/>
<stop offset="1" stop-color="#E9F4EC" stop-opacity="0"/>
</linearGradient>
<linearGradient id="paint14_linear_2893_27443" x1="88.7239" y1="57.2944" x2="85.1932" y2="57.2944" gradientUnits="userSpaceOnUse">
<stop stop-color="white" stop-opacity="0"/>
<stop offset="0.05" stop-color="#FDFEFE" stop-opacity="0.13"/>
<stop offset="0.18" stop-color="#FBFDFB" stop-opacity="0.44"/>
<stop offset="0.29" stop-color="#F9FCFA" stop-opacity="0.68"/>
<stop offset="0.39" stop-color="#F8FBF9" stop-opacity="0.85"/>
<stop offset="0.46" stop-color="#F7FBF8" stop-opacity="0.96"/>
<stop offset="0.51" stop-color="#F7FBF8"/>
<stop offset="0.71" stop-color="#F1F8F3" stop-opacity="0.58"/>
<stop offset="1" stop-color="#E9F4EC" stop-opacity="0"/>
</linearGradient>
<linearGradient id="paint15_linear_2893_27443" x1="56.6247" y1="88.8126" x2="16.2183" y2="85.0873" gradientUnits="userSpaceOnUse">
<stop stop-color="#84CEFF"/>
<stop offset="0.213542" stop-color="#8AB0FC"/>
<stop offset="1" stop-color="#D4C1FF"/>
</linearGradient>
<linearGradient id="paint16_linear_2893_27443" x1="1.46687" y1="32.6336" x2="60.7811" y2="61.3399" gradientUnits="userSpaceOnUse">
<stop stop-color="#84CEFF"/>
<stop offset="0.06" stop-color="#85C6FE"/>
<stop offset="0.14" stop-color="#8AB0FC"/>
<stop offset="0.24" stop-color="#918CF9"/>
<stop offset="0.32" stop-color="#986DF7"/>
<stop offset="0.5" stop-color="#8E65EA"/>
<stop offset="0.82" stop-color="#7551CA"/>
<stop offset="1" stop-color="#6545B6"/>
</linearGradient>
<linearGradient id="paint17_linear_2893_27443" x1="12.8479" y1="86.118" x2="72.0301" y2="61.0952" gradientUnits="userSpaceOnUse">
<stop stop-color="#858AE3"/>
<stop offset="0.19" stop-color="#93A7EC"/>
<stop offset="0.27" stop-color="#9FBEF3"/>
<stop offset="0.37" stop-color="#A8D0F8"/>
<stop offset="0.48" stop-color="#AEDCFC"/>
<stop offset="0.64" stop-color="#CDEDFF"/>
<stop offset="1" stop-color="#E3F6FF"/>
</linearGradient>
<linearGradient id="paint18_linear_2893_27443" x1="39.7039" y1="97.5052" x2="21.019" y2="55.4642" gradientUnits="userSpaceOnUse">
<stop stop-color="#E2E6FF"/>
<stop offset="0.5" stop-color="#C4DCFF"/>
<stop offset="1" stop-color="#CED2FF"/>
</linearGradient>
<linearGradient id="paint19_linear_2893_27443" x1="33.3322" y1="96.5978" x2="21.6054" y2="50.7919" gradientUnits="userSpaceOnUse">
<stop stop-color="#AAB3FF"/>
<stop offset="0.5" stop-color="#C4DCFF"/>
<stop offset="1" stop-color="white"/>
</linearGradient>
<linearGradient id="paint20_linear_2893_27443" x1="22.8843" y1="67.8982" x2="45.9478" y2="81.8491" gradientUnits="userSpaceOnUse">
<stop stop-color="#E8FAF5"/>
<stop offset="1" stop-color="#876BF0"/>
</linearGradient>
<linearGradient id="paint21_linear_2893_27443" x1="43.2436" y1="80.6138" x2="43.2409" y2="92.6018" gradientUnits="userSpaceOnUse">
<stop stop-color="#8757ED"/>
<stop offset="0.15" stop-color="#865EEE"/>
<stop offset="0.38" stop-color="#8674F1"/>
<stop offset="0.66" stop-color="#8598F6"/>
<stop offset="0.97" stop-color="#84C9FE"/>
<stop offset="1" stop-color="#84CEFF"/>
</linearGradient>
<linearGradient id="paint22_linear_2893_27443" x1="33.3743" y1="68.1573" x2="16.4528" y2="81.0834" gradientUnits="userSpaceOnUse">
<stop stop-color="#C8C8FF"/>
<stop offset="0.1" stop-color="#C0C6FE"/>
<stop offset="0.26" stop-color="#AAC1FD"/>
<stop offset="0.45" stop-color="#86BAFC"/>
<stop offset="0.945868" stop-color="#6F3FBA"/>
</linearGradient>
<linearGradient id="paint23_linear_2893_27443" x1="22.7719" y1="65.0978" x2="37.3675" y2="88.8385" gradientUnits="userSpaceOnUse">
<stop stop-color="#553AD1"/>
<stop offset="0.0192413" stop-color="#858AE3"/>
<stop offset="0.04" stop-color="#7469D9"/>
<stop offset="0.19" stop-color="#93A7EC"/>
<stop offset="0.27" stop-color="#9FBEF3"/>
<stop offset="0.37" stop-color="#A8D0F8"/>
<stop offset="0.48" stop-color="#AEDCFC"/>
<stop offset="0.64" stop-color="#B1E3FE"/>
<stop offset="1" stop-color="#B3E6FF"/>
</linearGradient>
<linearGradient id="paint24_linear_2893_27443" x1="25.8627" y1="71.3111" x2="30.6876" y2="85.0041" gradientUnits="userSpaceOnUse">
<stop stop-color="#E8FAF5"/>
<stop offset="1" stop-color="#876BF0"/>
</linearGradient>
<linearGradient id="paint25_linear_2893_27443" x1="26.3661" y1="76.1746" x2="20.6723" y2="83.897" gradientUnits="userSpaceOnUse">
<stop stop-color="#9A71FD"/>
<stop offset="0.07" stop-color="#9F8BFD"/>
<stop offset="0.14" stop-color="#A5A7FD"/>
<stop offset="0.23" stop-color="#AABEFE"/>
<stop offset="0.33" stop-color="#AED0FE"/>
<stop offset="0.46" stop-color="#B1DCFE"/>
<stop offset="0.62" stop-color="#B2E3FE"/>
<stop offset="1" stop-color="#B3E6FF"/>
</linearGradient>
<linearGradient id="paint26_linear_2893_27443" x1="20.9947" y1="80.6708" x2="33.4318" y2="74.0557" gradientUnits="userSpaceOnUse">
<stop stop-color="#858AE3"/>
<stop offset="0.19" stop-color="#93A7EC"/>
<stop offset="0.27" stop-color="#9FBEF3"/>
<stop offset="0.37" stop-color="#A8D0F8"/>
<stop offset="0.48" stop-color="#AEDCFC"/>
<stop offset="0.64" stop-color="#CDEDFF"/>
<stop offset="1" stop-color="#E3F6FF"/>
</linearGradient>
<linearGradient id="paint27_linear_2893_27443" x1="18.4172" y1="47.8905" x2="57.4" y2="45.1903" gradientUnits="userSpaceOnUse">
<stop stop-color="#84CEFF"/>
<stop offset="0.06" stop-color="#85C6FE"/>
<stop offset="0.14" stop-color="#8AB0FC"/>
<stop offset="1" stop-color="#8E65EA"/>
</linearGradient>
<linearGradient id="paint28_linear_2893_27443" x1="50.8324" y1="9.36138" x2="55.4798" y2="37.7843" gradientUnits="userSpaceOnUse">
<stop stop-color="#C8C8FF"/>
<stop offset="0.1" stop-color="#C0C6FE"/>
<stop offset="0.26" stop-color="#AAC1FD"/>
<stop offset="0.45" stop-color="#86BAFC"/>
<stop offset="0.67" stop-color="#55B0FA"/>
<stop offset="0.85" stop-color="#2AA8F9"/>
<stop offset="1" stop-color="#6C62E1"/>
</linearGradient>
<linearGradient id="paint29_linear_2893_27443" x1="49.4915" y1="10.0388" x2="54.139" y2="38.4617" gradientUnits="userSpaceOnUse">
<stop stop-color="#E8FAF5"/>
<stop offset="0.04" stop-color="#D9EDF3"/>
<stop offset="0.12" stop-color="#BDD5F1"/>
<stop offset="0.21" stop-color="#A6C1EF"/>
<stop offset="0.32" stop-color="#94B2ED"/>
<stop offset="0.44" stop-color="#88A7EC"/>
<stop offset="0.61" stop-color="#81A1EC"/>
<stop offset="1" stop-color="#7FA0EC"/>
</linearGradient>
<linearGradient id="paint30_linear_2893_27443" x1="64.5541" y1="19.5712" x2="38.276" y2="32.8854" gradientUnits="userSpaceOnUse">
<stop stop-color="#CACFF5"/>
<stop offset="0.05" stop-color="#C6CEF5" stop-opacity="0.97"/>
<stop offset="0.13" stop-color="#BDCEF5" stop-opacity="0.88"/>
<stop offset="0.22" stop-color="#ADCDF6" stop-opacity="0.73"/>
<stop offset="0.33" stop-color="#98CCF7" stop-opacity="0.53"/>
<stop offset="0.45" stop-color="#7DCBF9" stop-opacity="0.27"/>
<stop offset="0.56" stop-color="#61CAFB" stop-opacity="0"/>
<stop offset="0.62" stop-color="#76CBFA" stop-opacity="0.2"/>
<stop offset="0.7" stop-color="#91CDF9" stop-opacity="0.44"/>
<stop offset="0.77" stop-color="#A6CFF9" stop-opacity="0.64"/>
<stop offset="0.84" stop-color="#B7D0F8" stop-opacity="0.8"/>
<stop offset="0.9" stop-color="#C4D1F8" stop-opacity="0.91"/>
<stop offset="0.96" stop-color="#CBD1F8" stop-opacity="0.98"/>
<stop offset="1" stop-color="#CED2F8"/>
</linearGradient>
<linearGradient id="paint31_linear_2893_27443" x1="53.4284" y1="36.2548" x2="49.766" y2="17.9907" gradientUnits="userSpaceOnUse">
<stop stop-color="#CACFF5"/>
<stop offset="0.1" stop-color="#C2CDF5"/>
<stop offset="0.5" stop-color="#ACCAF6"/>
<stop offset="1" stop-color="#9AA2FF"/>
</linearGradient>
<linearGradient id="paint32_linear_2893_27443" x1="52.8108" y1="36.735" x2="49.8499" y2="21.9664" gradientUnits="userSpaceOnUse">
<stop stop-color="#E8FAF5"/>
<stop offset="0.04" stop-color="#D9EDF3"/>
<stop offset="0.12" stop-color="#BDD5F1"/>
<stop offset="0.21" stop-color="#A6C1EF"/>
<stop offset="0.32" stop-color="#94B2ED"/>
<stop offset="0.44" stop-color="#88A7EC"/>
<stop offset="0.61" stop-color="#81A1EC"/>
<stop offset="1" stop-color="#7FA0EC"/>
</linearGradient>
<linearGradient id="paint33_linear_2893_27443" x1="53.8864" y1="32.8358" x2="50.762" y2="17.2456" gradientUnits="userSpaceOnUse">
<stop stop-color="#C8C8FF"/>
<stop offset="0.1" stop-color="#C0C6FE"/>
<stop offset="0.26" stop-color="#AAC1FD"/>
<stop offset="0.45" stop-color="#86BAFC"/>
<stop offset="0.67" stop-color="#55B0FA"/>
<stop offset="0.85" stop-color="#5F61C8"/>
<stop offset="1" stop-color="#6C62E1"/>
</linearGradient>
<linearGradient id="paint34_linear_2893_27443" x1="49.5951" y1="31.6167" x2="54.774" y2="23.6734" gradientUnits="userSpaceOnUse">
<stop offset="0.242462" stop-color="#FADBEE"/>
<stop offset="0.871268" stop-color="#BFA2FF"/>
</linearGradient>
<linearGradient id="paint35_linear_2893_27443" x1="53.3381" y1="22.8268" x2="46.8875" y2="21.9767" gradientUnits="userSpaceOnUse">
<stop stop-color="#C8C8FF"/>
<stop offset="0.1" stop-color="#C0C6FE"/>
<stop offset="0.26" stop-color="#AAC1FD"/>
<stop offset="0.45" stop-color="#86BAFC"/>
<stop offset="0.67" stop-color="#55B0FA"/>
<stop offset="0.85" stop-color="#2AA8F9"/>
<stop offset="1" stop-color="#6C62E1"/>
</linearGradient>
<linearGradient id="paint36_linear_2893_27443" x1="53.7775" y1="25.7935" x2="44.6912" y2="23.9131" gradientUnits="userSpaceOnUse">
<stop offset="0.14" stop-color="#8AB0FC"/>
<stop offset="1" stop-color="#5332A6"/>
</linearGradient>
<linearGradient id="paint37_linear_2893_27443" x1="55.7262" y1="32.2511" x2="49.2343" y2="31.3956" gradientUnits="userSpaceOnUse">
<stop stop-color="#E2E2FF"/>
<stop offset="0.1" stop-color="#C0C6FE"/>
<stop offset="0.26" stop-color="#AAC1FD"/>
<stop offset="1" stop-color="#6889FF"/>
</linearGradient>
<radialGradient id="paint38_radial_2893_27443" cx="0" cy="0" r="1" gradientUnits="userSpaceOnUse" gradientTransform="translate(48.4712 39.5623) rotate(-172.493) scale(19.4525 19.4525)">
<stop offset="0.29" stop-color="#646DFF"/>
<stop offset="0.46" stop-color="#6472E9"/>
<stop offset="0.61" stop-color="#6880E9"/>
<stop offset="0.74" stop-color="#6F95E8"/>
<stop offset="0.86" stop-color="#77AFE8"/>
<stop offset="0.97" stop-color="#81D0E7"/>
<stop offset="1" stop-color="#85DBE7"/>
</radialGradient>
<linearGradient id="paint39_linear_2893_27443" x1="55.8522" y1="8.53807" x2="57.7351" y2="12.2544" gradientUnits="userSpaceOnUse">
<stop stop-color="white" stop-opacity="0"/>
<stop offset="0.03" stop-color="#FEFEFE" stop-opacity="0.07"/>
<stop offset="0.13" stop-color="#FCFDFC" stop-opacity="0.35"/>
<stop offset="0.23" stop-color="#FAFCFA" stop-opacity="0.58"/>
<stop offset="0.32" stop-color="#F8FBF9" stop-opacity="0.76"/>
<stop offset="0.39" stop-color="#F7FBF8" stop-opacity="0.89"/>
<stop offset="0.46" stop-color="#F7FBF8" stop-opacity="0.97"/>
<stop offset="0.51" stop-color="#F7FBF8"/>
<stop offset="0.55" stop-color="#F6FAF7" stop-opacity="0.97"/>
<stop offset="0.61" stop-color="#F5FAF6" stop-opacity="0.88"/>
<stop offset="0.7" stop-color="#F3F9F4" stop-opacity="0.75"/>
<stop offset="0.79" stop-color="#F0F7F2" stop-opacity="0.55"/>
<stop offset="0.89" stop-color="#EDF6EF" stop-opacity="0.3"/>
<stop offset="1" stop-color="#E9F4EC" stop-opacity="0"/>
</linearGradient>
<linearGradient id="paint40_linear_2893_27443" x1="54.9659" y1="11.2452" x2="58.6845" y2="9.36108" gradientUnits="userSpaceOnUse">
<stop stop-color="white" stop-opacity="0"/>
<stop offset="0.05" stop-color="#FDFEFE" stop-opacity="0.13"/>
<stop offset="0.18" stop-color="#FBFDFB" stop-opacity="0.44"/>
<stop offset="0.29" stop-color="#F9FCFA" stop-opacity="0.68"/>
<stop offset="0.39" stop-color="#F8FBF9" stop-opacity="0.85"/>
<stop offset="0.46" stop-color="#F7FBF8" stop-opacity="0.96"/>
<stop offset="0.51" stop-color="#F7FBF8"/>
<stop offset="0.71" stop-color="#F1F8F3" stop-opacity="0.58"/>
<stop offset="1" stop-color="#E9F4EC" stop-opacity="0"/>
</linearGradient>
<linearGradient id="paint41_linear_2893_27443" x1="18.5535" y1="15.4744" x2="27.4131" y2="35.7454" gradientUnits="userSpaceOnUse">
<stop stop-color="#B9D8FC"/>
<stop offset="0.98" stop-color="#B6A7FF"/>
</linearGradient>
<linearGradient id="paint42_linear_2893_27443" x1="28.7567" y1="19.6971" x2="22.9146" y2="27.6628" gradientUnits="userSpaceOnUse">
<stop offset="0.0001" stop-color="#FADBEE"/>
<stop offset="1" stop-color="#CABEFD"/>
</linearGradient>
<linearGradient id="paint43_linear_2893_27443" x1="26.6884" y1="34.5762" x2="23.985" y2="18.8579" gradientUnits="userSpaceOnUse">
<stop stop-color="white"/>
<stop offset="1" stop-color="#A0B8FF"/>
</linearGradient>
<linearGradient id="paint44_linear_2893_27443" x1="22.858" y1="17.1191" x2="28.7747" y2="30.6565" gradientUnits="userSpaceOnUse">
<stop stop-color="#E2DFFF"/>
<stop offset="1" stop-color="#ADAAFF"/>
</linearGradient>
<linearGradient id="paint45_linear_2893_27443" x1="24.8479" y1="23.908" x2="25.666" y2="23.9431" gradientUnits="userSpaceOnUse">
<stop offset="0.0001" stop-color="#B6A9FF"/>
<stop offset="1" stop-color="#A089FF"/>
</linearGradient>
<linearGradient id="paint46_linear_2893_27443" x1="25.9964" y1="24.6932" x2="26.8142" y2="24.7286" gradientUnits="userSpaceOnUse">
<stop offset="0.0001" stop-color="#B6A9FF"/>
<stop offset="1" stop-color="#A089FF"/>
</linearGradient>
<linearGradient id="paint47_linear_2893_27443" x1="26.1487" y1="22.9041" x2="26.9671" y2="22.9389" gradientUnits="userSpaceOnUse">
<stop offset="0.0001" stop-color="#B6A9FF"/>
<stop offset="1" stop-color="#A089FF"/>
</linearGradient>
<linearGradient id="paint48_linear_2893_27443" x1="24.9301" y1="22.0309" x2="25.748" y2="22.067" gradientUnits="userSpaceOnUse">
<stop offset="0.0001" stop-color="#B6A9FF"/>
<stop offset="1" stop-color="#A089FF"/>
</linearGradient>
<linearGradient id="paint49_linear_2893_27443" x1="24.313" y1="22.5055" x2="25.1312" y2="22.5413" gradientUnits="userSpaceOnUse">
<stop offset="0.0001" stop-color="#B6A9FF"/>
<stop offset="1" stop-color="#A089FF"/>
</linearGradient>
<linearGradient id="paint50_linear_2893_27443" x1="26.6174" y1="24.2146" x2="27.4349" y2="24.2504" gradientUnits="userSpaceOnUse">
<stop offset="0.0001" stop-color="#B6A9FF"/>
<stop offset="1" stop-color="#A089FF"/>
</linearGradient>
<linearGradient id="paint51_linear_2893_27443" x1="27.5376" y1="24.092" x2="28.0128" y2="24.112" gradientUnits="userSpaceOnUse">
<stop offset="0.0001" stop-color="#B6A9FF"/>
<stop offset="1" stop-color="#A089FF"/>
</linearGradient>
<linearGradient id="paint52_linear_2893_27443" x1="23.7251" y1="23.006" x2="24.2003" y2="23.0261" gradientUnits="userSpaceOnUse">
<stop offset="0.0001" stop-color="#B6A9FF"/>
<stop offset="1" stop-color="#A089FF"/>
</linearGradient>
<linearGradient id="paint53_linear_2893_27443" x1="23.8852" y1="21.2854" x2="24.3604" y2="21.3054" gradientUnits="userSpaceOnUse">
<stop offset="0.0001" stop-color="#B6A9FF"/>
<stop offset="1" stop-color="#A089FF"/>
</linearGradient>
<linearGradient id="paint54_linear_2893_27443" x1="27.3774" y1="25.8127" x2="27.8528" y2="25.8327" gradientUnits="userSpaceOnUse">
<stop offset="0.0001" stop-color="#B6A9FF"/>
<stop offset="1" stop-color="#A089FF"/>
</linearGradient>
<linearGradient id="paint55_linear_2893_27443" x1="25.7133" y1="21.6525" x2="26.1883" y2="21.6729" gradientUnits="userSpaceOnUse">
<stop offset="0.0001" stop-color="#B6A9FF"/>
<stop offset="1" stop-color="#A089FF"/>
</linearGradient>
<linearGradient id="paint56_linear_2893_27443" x1="25.5532" y1="25.4455" x2="26.0281" y2="25.4658" gradientUnits="userSpaceOnUse">
<stop offset="0.0001" stop-color="#B6A9FF"/>
<stop offset="1" stop-color="#A089FF"/>
</linearGradient>
<linearGradient id="paint57_linear_2893_27443" x1="27.0994" y1="22.5392" x2="27.4814" y2="22.5556" gradientUnits="userSpaceOnUse">
<stop offset="0.0001" stop-color="#B6A9FF"/>
<stop offset="1" stop-color="#A089FF"/>
</linearGradient>
<linearGradient id="paint58_linear_2893_27443" x1="23.1111" y1="21.6759" x2="23.4935" y2="21.692" gradientUnits="userSpaceOnUse">
<stop offset="0.0001" stop-color="#B6A9FF"/>
<stop offset="1" stop-color="#A089FF"/>
</linearGradient>
<linearGradient id="paint59_linear_2893_27443" x1="24.5486" y1="20.6427" x2="24.9306" y2="20.6591" gradientUnits="userSpaceOnUse">
<stop offset="0.0001" stop-color="#B6A9FF"/>
<stop offset="1" stop-color="#A089FF"/>
</linearGradient>
<linearGradient id="paint60_linear_2893_27443" x1="24.2986" y1="24.6994" x2="24.6806" y2="24.7157" gradientUnits="userSpaceOnUse">
<stop offset="0.0001" stop-color="#B6A9FF"/>
<stop offset="1" stop-color="#A089FF"/>
</linearGradient>
<linearGradient id="paint61_linear_2893_27443" x1="28.283" y1="25.5607" x2="28.665" y2="25.5771" gradientUnits="userSpaceOnUse">
<stop offset="0.0001" stop-color="#B6A9FF"/>
<stop offset="1" stop-color="#A089FF"/>
</linearGradient>
<linearGradient id="paint62_linear_2893_27443" x1="26.8453" y1="26.596" x2="27.2269" y2="26.612" gradientUnits="userSpaceOnUse">
<stop offset="0.0001" stop-color="#B6A9FF"/>
<stop offset="1" stop-color="#A089FF"/>
</linearGradient>
<linearGradient id="paint63_linear_2893_27443" x1="22.9735" y1="20.0916" x2="23.3272" y2="20.1057" gradientUnits="userSpaceOnUse">
<stop offset="0.0001" stop-color="#B6A9FF"/>
<stop offset="1" stop-color="#A089FF"/>
</linearGradient>
<linearGradient id="paint64_linear_2893_27443" x1="22.7281" y1="22.7765" x2="23.0828" y2="22.7928" gradientUnits="userSpaceOnUse">
<stop offset="0.0001" stop-color="#B6A9FF"/>
<stop offset="1" stop-color="#A089FF"/>
</linearGradient>
<linearGradient id="paint65_linear_2893_27443" x1="25.5711" y1="26.5741" x2="25.9248" y2="26.5882" gradientUnits="userSpaceOnUse">
<stop offset="0.0001" stop-color="#B6A9FF"/>
<stop offset="1" stop-color="#A089FF"/>
</linearGradient>
<linearGradient id="paint66_linear_2893_27443" x1="28.6687" y1="24.4686" x2="29.0214" y2="24.4837" gradientUnits="userSpaceOnUse">
<stop offset="0.0001" stop-color="#B6A9FF"/>
<stop offset="1" stop-color="#A089FF"/>
</linearGradient>
<linearGradient id="paint67_linear_2893_27443" x1="25.8217" y1="20.6653" x2="26.1756" y2="20.6816" gradientUnits="userSpaceOnUse">
<stop offset="0.0001" stop-color="#B6A9FF"/>
<stop offset="1" stop-color="#A089FF"/>
</linearGradient>
<linearGradient id="paint68_linear_2893_27443" x1="28.4226" y1="27.1502" x2="28.7753" y2="27.1653" gradientUnits="userSpaceOnUse">
<stop offset="0.0001" stop-color="#B6A9FF"/>
<stop offset="1" stop-color="#A089FF"/>
</linearGradient>
<linearGradient id="paint69_linear_2893_27443" x1="27.6623" y1="22.2173" x2="27.9296" y2="22.2277" gradientUnits="userSpaceOnUse">
<stop offset="0.0001" stop-color="#B6A9FF"/>
<stop offset="1" stop-color="#A089FF"/>
</linearGradient>
<linearGradient id="paint70_linear_2893_27443" x1="23.8537" y1="25.1529" x2="24.121" y2="25.1633" gradientUnits="userSpaceOnUse">
<stop offset="0.0001" stop-color="#B6A9FF"/>
<stop offset="1" stop-color="#A089FF"/>
</linearGradient>
<linearGradient id="paint71_linear_2893_27443" x1="24.1981" y1="19.6407" x2="24.4666" y2="19.6522" gradientUnits="userSpaceOnUse">
<stop offset="0.0001" stop-color="#B6A9FF"/>
<stop offset="1" stop-color="#A089FF"/>
</linearGradient>
<linearGradient id="paint72_linear_2893_27443" x1="27.3191" y1="27.7344" x2="27.587" y2="27.7466" gradientUnits="userSpaceOnUse">
<stop offset="0.0001" stop-color="#B6A9FF"/>
<stop offset="1" stop-color="#A089FF"/>
</linearGradient>
<linearGradient id="paint73_linear_2893_27443" x1="22.2447" y1="21.047" x2="22.5115" y2="21.0596" gradientUnits="userSpaceOnUse">
<stop offset="0.0001" stop-color="#B6A9FF"/>
<stop offset="1" stop-color="#A089FF"/>
</linearGradient>
<linearGradient id="paint74_linear_2893_27443" x1="29.272" y1="26.3283" x2="29.5392" y2="26.3405" gradientUnits="userSpaceOnUse">
<stop offset="0.0001" stop-color="#B6A9FF"/>
<stop offset="1" stop-color="#A089FF"/>
</linearGradient>
<linearGradient id="paint75_linear_2893_27443" x1="22.0842" y1="17.471" x2="27.9965" y2="30.9984" gradientUnits="userSpaceOnUse">
<stop stop-color="#B594FF"/>
<stop offset="1" stop-color="#A3E5FF"/>
</linearGradient>
<linearGradient id="paint76_linear_2893_27443" x1="28.6015" y1="21.728" x2="22.8531" y2="18.7547" gradientUnits="userSpaceOnUse">
<stop stop-color="white"/>
<stop offset="1" stop-color="#9BC9FF"/>
</linearGradient>
<radialGradient id="paint77_radial_2893_27443" cx="0" cy="0" r="1" gradientUnits="userSpaceOnUse" gradientTransform="translate(49.2395 108.617) scale(21.5734 10.7867)">
<stop stop-color="#6472E9"/>
<stop offset="0.86" stop-color="#77AFE8"/>
<stop offset="0.97" stop-color="#81D0E7"/>
<stop offset="1" stop-color="#85DBE7"/>
</radialGradient>
</defs>
</svg>
