<svg data-v-423bf9ae="" xmlns="http://www.w3.org/2000/svg" viewBox="0 0 509 110" class="iconLeft"><!----><!----><!----><g data-v-423bf9ae="" id="777d1513-0c05-40a1-847e-1607b8565540" fill="#FFFFFF" transform="matrix(5.934717742604922,0,0,5.934717742604922,111.9508931016129,-1.6586308285794544)"><path d="M6.02 14.35L7.45 14.35L7.45 9.35L4.13 9.35L4.13 10.53L6.02 10.53L6.02 11.41C6.02 12.47 5.39 13.23 4.26 13.23C2.83 13.23 2.32 11.98 2.32 10.19L2.32 8.64C2.32 6.85 2.90 5.71 4.26 5.71C5.35 5.71 5.74 6.45 6.03 7.31L7.45 6.83C7.04 5.52 6.16 4.41 4.24 4.41C1.82 4.41 0.66 6.22 0.66 9.53C0.66 12.70 1.69 14.52 3.72 14.52C5.01 14.52 5.60 13.79 5.92 13.01L6.02 13.01ZM15.72 14.35L15.72 13.03L11.17 13.03L11.17 10.05L15.55 10.05L15.55 8.74L11.17 8.74L11.17 5.89L15.72 5.89L15.72 4.58L9.60 4.58L9.60 14.35ZM23.03 14.35L24.42 14.35L24.42 4.58L22.61 4.58L21.10 8.46L21 8.46L19.50 4.58L17.58 4.58L17.58 14.35L18.97 14.35L18.97 9.67L18.93 6.73L19.04 6.73L21 11.76L22.96 6.73L23.07 6.73L23.03 9.67ZM29.68 14.52C31.57 14.52 32.44 13.43 32.89 12.10L31.47 11.62C31.18 12.52 30.77 13.22 29.67 13.22C28.28 13.22 27.68 12.08 27.68 10.29L27.68 8.64C27.68 6.85 28.28 5.71 29.67 5.71C30.77 5.71 31.18 6.41 31.47 7.31L32.89 6.83C32.44 5.50 31.57 4.41 29.68 4.41C27.20 4.41 26.01 6.23 26.01 9.46C26.01 12.70 27.20 14.52 29.68 14.52ZM36.33 10.40L37.63 10.40L39.70 14.35L41.44 14.35L39.19 10.26C40.54 10.04 41.30 9.00 41.30 7.52C41.30 5.70 40.28 4.58 38.43 4.58L34.78 4.58L34.78 14.35L36.33 14.35ZM36.33 9.14L36.33 5.88L38.21 5.88C39.19 5.88 39.66 6.31 39.66 7.21L39.66 7.81C39.66 8.71 39.19 9.14 38.21 9.14ZM49.32 14.35L49.32 13.03L44.77 13.03L44.77 10.05L49.15 10.05L49.15 8.74L44.77 8.74L44.77 5.89L49.32 5.89L49.32 4.58L43.20 4.58L43.20 14.35ZM54.52 14.52C56.81 14.52 58.07 13.31 58.07 11.51C58.07 10.12 57.32 9.11 55.55 8.79L54.52 8.61C53.31 8.41 52.89 7.97 52.89 7.17C52.89 6.22 53.52 5.71 54.67 5.71C55.75 5.71 56.46 6.15 56.99 6.80L57.97 5.82C57.30 4.94 56.21 4.41 54.67 4.41C52.60 4.41 51.31 5.40 51.31 7.24C51.31 8.54 51.97 9.65 53.82 9.95L54.88 10.12C56.06 10.32 56.49 10.75 56.49 11.59C56.49 12.63 55.80 13.22 54.57 13.22C53.52 13.22 52.70 12.80 51.95 11.91L50.95 12.88C51.69 13.86 52.82 14.52 54.52 14.52ZM66.85 5.89L66.85 4.58L59.15 4.58L59.15 5.89L62.22 5.89L62.22 14.35L63.78 14.35L63.78 5.89Z"></path></g><!----><g data-v-423bf9ae="" id="c1441527-ca95-487b-9d85-537ad6bb1cf1" transform="matrix(1.1006409539116753,0,0,1.1006409539116753,-6.576497001130377,0.4391580875775034)" stroke="none" fill="#FFFFFF"><path d="M6.91 44.373l21.113-.525 5.357 3.151L45.775 49.1h.735l8.613-9.454.735-2.206.525-.735h1.05v-.735l-1.785-1.156-.631-1.891.315-1.786.735-1.05 1.365-.63-.63-.84-.841-1.471.735-2.206.735-1.471.631-.945.525-.735-1.051-1.576-.841-1.576-.104-.945 5.042.84 4.622.562s1.759.131 2.914-.394c1.156-.525 3.493-1.208 3.493-1.208s1.785-2.531 1.785-2.951c0-.42-.63-1.576-.63-1.576l-3.987-.735-5.673-1.261-5.566-2.311-2.837-1.156s-4.411.21-5.462.735c-1.05.525-5.146 1.576-5.146 1.576s-4.202 1.26-4.465 1.366c-.263.105-4.779 2.311-4.884 2.731-.105.42-4.307 3.676-4.307 3.676l-2.626.84-4.097.315-4.412.63-4.201.105h-3.151l-3.992.42-2.626-.21v24.159l.525.528z"></path><path d="M57.75 18.848s1.155 2.836 1.996 2.626c.84-.21 8.508.525 11.449-.42S84.01 15.381 86.847 9.919c0 0-1.051-1.681-1.366-1.891-.314-.21-.314-2.836-.314-2.836s-4.832.315-5.463 0c-.63-.315-3.256-1.576-4.307-1.576-1.05 0-8.928-.315-10.398-.525 0 0-4.412-4.412-14.601-1.786l-4.202 3.781 2.447 2.729 4.591-1.364L56.28 6.4l6.688 3.011 11.484 2.818 1.681 1.559-.945 2.117-2.18 2.504-4.333 1.523-4.411-.141-6.514-.943zM78.601 29.562s-7.825-.07-8.176-.42c-.351-.351-10.153-.63-10.084-.84.07-.21-2.731-.42-2.731-.42s-.279-2.731 0-3.361c.281-.63 3.361-1.821 3.361-1.821l6.373-.49 2.451.019 3.353-.95s3.58-.399 4.98.511.473 7.772.473 7.772zM78.901 34.499s-.406-3.046-1.299-3.571c-.893-.525-6.197-.683-6.197-.683s-3.939-.683-5.199-.683c-1.261 0-4.454-.107-7.237.838 0 0-1.334.139-2.409.966-1.076.827-.105 2.276-.105 2.276l.561.857 2.994 1.05s4.779.578 5.304.578c.525 0 4.149.788 4.149.788l2.521.63 1.47.473 1.996-.578 2.153-1.418 1.298-1.523zM72.736 39.068l-3.8-1.313-3.571-.578s-3.203-.21-3.414 0c-.21.21-3.114-.478-4.779.42-1.665.898-.473 3.806-.262 3.925.21.119 2.048 1.432 2.048 1.432l3.151.578 3.203.683 4.202.315 3.204.683 1.418-.578 1.103-1.05.368-1.103v-.959l-2.871-2.455zM71.931 46.21s.84 1.943.63 2.889-1.418 1.576-1.418 1.576h-2.949l-2.24-.42L61.9 48.68l-2.206-.788-.525-1.418.368-1.996 5.111.579 7.283 1.153z"></path><path d="M92.413 73.049s-1.365-4.098-4.831-7.773c0 0-5.463-7.878-6.723-8.508-1.261-.631-1.261-3.887-6.408-7.248l-1.295 1.12-.771.771 1.471 5.445-2.941-5.096-4.201-.21-.761 6.427-.57-6.427s-4.621-2.59-5.392-2.451-3.691 3.975-3.691 3.975l1.17-3.975.631-.98v-2.872l.56-1.4-1.26-.351-5.743 5.603 4.202-6.092s-.315-1.366-.63-1.471c-.315-.105-1.208.42-1.208.42l-7.091 7.878s-5.672 5.567-7.458 7.458c-1.785 1.891-5.777 7.982-6.617 9.663-.841 1.681-3.046 4.622-3.467 6.827-.42 2.207-.314 5.043 0 6.408.315 1.365 1.996 4.412 2.416 4.727.421.314 3.151 3.467 4.307 4.307.457.332 1.145 1.043 1.841 1.826.355.398 3.852-3.639 4.182-3.242.66.791-2.925 4.465-2.713 4.761.524.735 5.829 6.319 9.821 6.845 3.991.525 7.247-.91 7.668-1.225.134-.102.646-5.067 1.155-5.199.499-.131.191 4.727.986 4.711.925-.02 2.406.211 3.635.557 3.361.945 6.513.631 7.248.525.579-.082 2.984-1.274 4.441-1.827.393-.149-.335-3.839-.135-3.861.08-.009 1.261 3.563 1.435 3.542 1.885-.234 8.79-1.18 9.175-1.949.42-.841 1.051-.316 3.256-5.043 2.206-4.727 2.626-3.676 4.307-6.827-.001-.001 2.415-6.303-.001-9.769zM51.832 59.965l-3.028 3.997-1.222 1.232-2.322 3.399-2.985 4.813s.257-.839.696-1.981c.438-1.144 1.058-2.591 1.781-3.807 1.448-2.432 5.936-7.871 5.936-7.871l2.385-3.205-1.241 3.423zm6.343 19.422l-.42 4.307-.945-4.307 3.803-7.668-2.438 7.668zm18.882 1.681l-1.696 3.886s1.074-3.392.763-5.695c-.311-2.303-1.444-12.173-1.499-12.666-.056-.493 3.224 8.163 3.224 9.181s-.792 5.294-.792 5.294z"></path></g><!----></svg>