<svg data-v-423bf9ae="" xmlns="http://www.w3.org/2000/svg" viewBox="0 0 476.0040602853055 60" class="font"><!----><!----><!----><g data-v-423bf9ae="" id="4c2744e9-7703-4359-9c3b-05a1b1b9beb6" fill="black" transform="matrix(6.054490506946714,0,0,6.054490506946714,-3.4510637860360305,-2.5428861735674815)"><path d="M5.51 8.75L5.51 8.75L5.51 8.75Q5.95 8.75 6.35 8.68L6.35 8.68L6.35 8.68Q6.75 8.61 7.10 8.50L7.10 8.50L7.10 8.50Q7.44 8.39 7.72 8.24L7.72 8.24L7.72 8.24Q8.00 8.09 8.18 7.94L8.18 7.94L8.18 6.60L5.82 6.60L5.82 5.11L10.02 5.11L10.02 8.65L10.02 8.65Q9.69 8.99 9.23 9.29L9.23 9.29L9.23 9.29Q8.76 9.60 8.18 9.83L8.18 9.83L8.18 9.83Q7.60 10.06 6.91 10.19L6.91 10.19L6.91 10.19Q6.23 10.33 5.46 10.33L5.46 10.33L5.46 10.33Q4.18 10.33 3.25 9.96L3.25 9.96L3.25 9.96Q2.33 9.58 1.74 8.92L1.74 8.92L1.74 8.92Q1.14 8.25 0.86 7.33L0.86 7.33L0.86 7.33Q0.57 6.42 0.57 5.33L0.57 5.33L0.57 5.33Q0.57 4.20 0.88 3.29L0.88 3.29L0.88 3.29Q1.18 2.39 1.79 1.75L1.79 1.75L1.79 1.75Q2.40 1.11 3.33 0.76L3.33 0.76L3.33 0.76Q4.25 0.42 5.50 0.42L5.50 0.42L5.50 0.42Q6.41 0.42 7.12 0.59L7.12 0.59L7.12 0.59Q7.83 0.77 8.36 1.10L8.36 1.10L8.36 1.10Q8.89 1.43 9.25 1.89L9.25 1.89L9.25 1.89Q9.60 2.35 9.82 2.93L9.82 2.93L7.96 3.49L7.96 3.49Q7.83 3.19 7.63 2.92L7.63 2.92L7.63 2.92Q7.42 2.65 7.12 2.44L7.12 2.44L7.12 2.44Q6.82 2.24 6.42 2.12L6.42 2.12L6.42 2.12Q6.02 2.00 5.50 2.00L5.50 2.00L5.50 2.00Q4.75 2.00 4.20 2.24L4.20 2.24L4.20 2.24Q3.66 2.47 3.30 2.91L3.30 2.91L3.30 2.91Q2.95 3.35 2.78 3.96L2.78 3.96L2.78 3.96Q2.60 4.57 2.60 5.33L2.60 5.33L2.60 5.33Q2.60 6.08 2.78 6.71L2.78 6.71L2.78 6.71Q2.95 7.34 3.31 7.79L3.31 7.79L3.31 7.79Q3.67 8.24 4.22 8.50L4.22 8.50L4.22 8.50Q4.76 8.75 5.51 8.75ZM19.68 10.19L11.83 10.19L11.83 0.56L19.40 0.56L19.40 2.12L13.84 2.12L13.84 4.54L18.98 4.54L18.98 6.10L13.84 6.10L13.84 8.63L19.68 8.63L19.68 10.19ZM30.95 10.19L29.16 10.19L29.16 4.35L29.16 4.35Q29.16 4.01 29.17 3.64L29.17 3.64L29.17 3.64Q29.18 3.27 29.20 2.96L29.20 2.96L29.20 2.96Q29.22 2.60 29.23 2.26L29.23 2.26L29.23 2.26Q29.09 2.80 28.96 3.28L28.96 3.28L28.96 3.28Q28.90 3.49 28.84 3.71L28.84 3.71L28.84 3.71Q28.78 3.92 28.72 4.13L28.72 4.13L28.72 4.13Q28.66 4.33 28.61 4.51L28.61 4.51L28.61 4.51Q28.55 4.69 28.51 4.82L28.51 4.82L26.78 10.19L25.34 10.19L23.60 4.82L23.60 4.82Q23.56 4.69 23.51 4.51L23.51 4.51L23.51 4.51Q23.46 4.33 23.40 4.13L23.40 4.13L23.40 4.13Q23.34 3.92 23.28 3.71L23.28 3.71L23.28 3.71Q23.22 3.49 23.16 3.28L23.16 3.28L23.16 3.28Q23.02 2.80 22.87 2.26L22.87 2.26L22.87 2.26Q22.89 2.65 22.91 3.04L22.91 3.04L22.91 3.04Q22.93 3.36 22.94 3.73L22.94 3.73L22.94 3.73Q22.96 4.09 22.96 4.35L22.96 4.35L22.96 10.19L21.16 10.19L21.16 0.56L23.86 0.56L25.59 5.95L25.59 5.95Q25.66 6.16 25.73 6.47L25.73 6.47L25.73 6.47Q25.81 6.77 25.89 7.06L25.89 7.06L25.89 7.06Q25.97 7.40 26.07 7.76L26.07 7.76L26.07 7.76Q26.16 7.40 26.25 7.08L26.25 7.08L26.25 7.08Q26.29 6.93 26.33 6.78L26.33 6.78L26.33 6.78Q26.37 6.63 26.41 6.49L26.41 6.49L26.41 6.49Q26.46 6.34 26.50 6.21L26.50 6.21L26.50 6.21Q26.54 6.08 26.57 5.98L26.57 5.98L28.27 0.56L30.95 0.56L30.95 10.19ZM37.32 8.74L37.32 8.74L37.32 8.74Q37.89 8.74 38.31 8.58L38.31 8.58L38.31 8.58Q38.72 8.42 39.02 8.16L39.02 8.16L39.02 8.16Q39.33 7.90 39.53 7.57L39.53 7.57L39.53 7.57Q39.73 7.25 39.86 6.91L39.86 6.91L41.62 7.57L41.62 7.57Q41.41 8.09 41.06 8.59L41.06 8.59L41.06 8.59Q40.72 9.09 40.21 9.47L40.21 9.47L40.21 9.47Q39.70 9.86 38.99 10.09L38.99 10.09L38.99 10.09Q38.28 10.33 37.32 10.33L37.32 10.33L37.32 10.33Q36.07 10.33 35.16 9.96L35.16 9.96L35.16 9.96Q34.24 9.58 33.64 8.92L33.64 8.92L33.64 8.92Q33.04 8.25 32.75 7.33L32.75 7.33L32.75 7.33Q32.46 6.42 32.46 5.33L32.46 5.33L32.46 5.33Q32.46 4.20 32.75 3.29L32.75 3.29L32.75 3.29Q33.04 2.39 33.63 1.75L33.63 1.75L33.63 1.75Q34.22 1.11 35.12 0.76L35.12 0.76L35.12 0.76Q36.02 0.42 37.24 0.42L37.24 0.42L37.24 0.42Q38.18 0.42 38.89 0.62L38.89 0.62L38.89 0.62Q39.59 0.81 40.11 1.17L40.11 1.17L40.11 1.17Q40.63 1.53 40.96 2.02L40.96 2.02L40.96 2.02Q41.30 2.51 41.49 3.10L41.49 3.10L39.72 3.58L39.72 3.58Q39.62 3.27 39.42 2.99L39.42 2.99L39.42 2.99Q39.22 2.71 38.92 2.49L38.92 2.49L38.92 2.49Q38.62 2.27 38.21 2.14L38.21 2.14L38.21 2.14Q37.80 2.00 37.28 2.00L37.28 2.00L37.28 2.00Q36.54 2.00 36.02 2.24L36.02 2.24L36.02 2.24Q35.49 2.47 35.15 2.91L35.15 2.91L35.15 2.91Q34.82 3.35 34.65 3.96L34.65 3.96L34.65 3.96Q34.49 4.57 34.49 5.33L34.49 5.33L34.49 5.33Q34.49 6.08 34.65 6.71L34.65 6.71L34.65 6.71Q34.82 7.33 35.16 7.79L35.16 7.79L35.16 7.79Q35.50 8.24 36.04 8.49L36.04 8.49L36.04 8.49Q36.57 8.74 37.32 8.74ZM51.82 10.19L49.55 10.19L47.32 6.54L44.95 6.54L44.95 10.19L42.94 10.19L42.94 0.56L47.75 0.56L47.75 0.56Q48.65 0.56 49.32 0.76L49.32 0.76L49.32 0.76Q50.00 0.96 50.45 1.34L50.45 1.34L50.45 1.34Q50.90 1.71 51.12 2.24L51.12 2.24L51.12 2.24Q51.34 2.77 51.34 3.43L51.34 3.43L51.34 3.43Q51.34 3.97 51.18 4.42L51.18 4.42L51.18 4.42Q51.02 4.87 50.74 5.22L50.74 5.22L50.74 5.22Q50.46 5.56 50.07 5.80L50.07 5.80L50.07 5.80Q49.68 6.04 49.22 6.15L49.22 6.15L51.82 10.19ZM49.31 3.51L49.31 3.51L49.31 3.51Q49.31 2.81 48.85 2.47L48.85 2.47L48.85 2.47Q48.39 2.13 47.54 2.13L47.54 2.13L44.95 2.13L44.95 4.97L47.59 4.97L47.59 4.97Q48.04 4.97 48.37 4.86L48.37 4.86L48.37 4.86Q48.69 4.76 48.90 4.56L48.90 4.56L48.90 4.56Q49.11 4.37 49.21 4.10L49.21 4.10L49.21 4.10Q49.31 3.83 49.31 3.51ZM60.90 10.19L53.05 10.19L53.05 0.56L60.62 0.56L60.62 2.12L55.06 2.12L55.06 4.54L60.20 4.54L60.20 6.10L55.06 6.10L55.06 8.63L60.90 8.63L60.90 10.19ZM70.24 7.42L70.24 7.42L70.24 7.42Q70.24 8.07 70 8.61L70 8.61L70 8.61Q69.76 9.15 69.26 9.53L69.26 9.53L69.26 9.53Q68.76 9.91 67.97 10.12L67.97 10.12L67.97 10.12Q67.19 10.33 66.11 10.33L66.11 10.33L66.11 10.33Q65.15 10.33 64.42 10.16L64.42 10.16L64.42 10.16Q63.69 9.99 63.17 9.65L63.17 9.65L63.17 9.65Q62.64 9.32 62.32 8.82L62.32 8.82L62.32 8.82Q62.00 8.33 61.85 7.68L61.85 7.68L63.80 7.36L63.80 7.36Q63.88 7.68 64.04 7.95L64.04 7.95L64.04 7.95Q64.20 8.22 64.47 8.41L64.47 8.41L64.47 8.41Q64.75 8.61 65.16 8.71L65.16 8.71L65.16 8.71Q65.58 8.82 66.17 8.82L66.17 8.82L66.17 8.82Q67.19 8.82 67.73 8.51L67.73 8.51L67.73 8.51Q68.28 8.20 68.28 7.53L68.28 7.53L68.28 7.53Q68.28 7.14 68.06 6.88L68.06 6.88L68.06 6.88Q67.84 6.63 67.48 6.47L67.48 6.47L67.48 6.47Q67.12 6.30 66.64 6.19L66.64 6.19L66.64 6.19Q66.17 6.08 65.66 5.98L65.66 5.98L65.66 5.98Q65.25 5.89 64.84 5.78L64.84 5.78L64.84 5.78Q64.43 5.68 64.06 5.54L64.06 5.54L64.06 5.54Q63.68 5.39 63.36 5.20L63.36 5.20L63.36 5.20Q63.04 5.00 62.81 4.71L62.81 4.71L62.81 4.71Q62.57 4.42 62.44 4.03L62.44 4.03L62.44 4.03Q62.30 3.64 62.30 3.11L62.30 3.11L62.30 3.11Q62.30 2.39 62.59 1.88L62.59 1.88L62.59 1.88Q62.88 1.37 63.39 1.04L63.39 1.04L63.39 1.04Q63.90 0.72 64.60 0.57L64.60 0.57L64.60 0.57Q65.30 0.42 66.14 0.42L66.14 0.42L66.14 0.42Q67.08 0.42 67.75 0.56L67.75 0.56L67.75 0.56Q68.43 0.71 68.88 1.01L68.88 1.01L68.88 1.01Q69.34 1.31 69.60 1.77L69.60 1.77L69.60 1.77Q69.86 2.22 69.99 2.83L69.99 2.83L68.03 3.10L68.03 3.10Q67.88 2.47 67.42 2.16L67.42 2.16L67.42 2.16Q66.96 1.85 66.10 1.85L66.10 1.85L66.10 1.85Q65.56 1.85 65.21 1.94L65.21 1.94L65.21 1.94Q64.86 2.03 64.65 2.19L64.65 2.19L64.65 2.19Q64.44 2.34 64.35 2.55L64.35 2.55L64.35 2.55Q64.26 2.76 64.26 2.99L64.26 2.99L64.26 2.99Q64.26 3.35 64.44 3.58L64.44 3.58L64.44 3.58Q64.61 3.81 64.91 3.96L64.91 3.96L64.91 3.96Q65.22 4.12 65.65 4.22L65.65 4.22L65.65 4.22Q66.08 4.33 66.59 4.44L66.59 4.44L66.59 4.44Q67.04 4.53 67.48 4.64L67.48 4.64L67.48 4.64Q67.93 4.74 68.33 4.89L68.33 4.89L68.33 4.89Q68.74 5.03 69.08 5.24L69.08 5.24L69.08 5.24Q69.43 5.44 69.69 5.74L69.69 5.74L69.69 5.74Q69.95 6.04 70.09 6.45L70.09 6.45L70.09 6.45Q70.24 6.86 70.24 7.42ZM79.19 2.12L76.07 2.12L76.07 10.19L74.05 10.19L74.05 2.12L70.94 2.12L70.94 0.56L79.19 0.56L79.19 2.12Z"></path></g><!----><!----></svg>