<svg data-v-423bf9ae="" xmlns="http://www.w3.org/2000/svg" viewBox="0 0 466.6195815226994 60" class="font"><!----><!----><!----><g data-v-423bf9ae="" id="a06328ba-afed-4817-a708-0ed7384f4e71" fill="black" transform="matrix(6.054490506946714,0,0,6.054490506946714,-3.4510622587368687,-2.5428861735674815)"><path d="M5.51 8.75L5.51 8.75L5.51 8.75Q5.95 8.75 6.35 8.68L6.35 8.68L6.35 8.68Q6.75 8.61 7.10 8.50L7.10 8.50L7.10 8.50Q7.44 8.39 7.72 8.24L7.72 8.24L7.72 8.24Q8.00 8.09 8.18 7.94L8.18 7.94L8.18 6.60L5.82 6.60L5.82 5.11L10.02 5.11L10.02 8.65L10.02 8.65Q9.69 8.99 9.23 9.29L9.23 9.29L9.23 9.29Q8.76 9.60 8.18 9.83L8.18 9.83L8.18 9.83Q7.60 10.06 6.91 10.19L6.91 10.19L6.91 10.19Q6.23 10.33 5.46 10.33L5.46 10.33L5.46 10.33Q4.18 10.33 3.25 9.96L3.25 9.96L3.25 9.96Q2.33 9.58 1.74 8.92L1.74 8.92L1.74 8.92Q1.14 8.25 0.86 7.33L0.86 7.33L0.86 7.33Q0.57 6.42 0.57 5.33L0.57 5.33L0.57 5.33Q0.57 4.20 0.88 3.29L0.88 3.29L0.88 3.29Q1.18 2.39 1.79 1.75L1.79 1.75L1.79 1.75Q2.40 1.11 3.33 0.76L3.33 0.76L3.33 0.76Q4.25 0.42 5.50 0.42L5.50 0.42L5.50 0.42Q6.41 0.42 7.12 0.59L7.12 0.59L7.12 0.59Q7.83 0.77 8.36 1.10L8.36 1.10L8.36 1.10Q8.89 1.43 9.25 1.89L9.25 1.89L9.25 1.89Q9.60 2.35 9.82 2.93L9.82 2.93L7.96 3.49L7.96 3.49Q7.83 3.19 7.63 2.92L7.63 2.92L7.63 2.92Q7.42 2.65 7.12 2.44L7.12 2.44L7.12 2.44Q6.82 2.24 6.42 2.12L6.42 2.12L6.42 2.12Q6.02 2.00 5.50 2.00L5.50 2.00L5.50 2.00Q4.75 2.00 4.20 2.24L4.20 2.24L4.20 2.24Q3.66 2.47 3.30 2.91L3.30 2.91L3.30 2.91Q2.95 3.35 2.78 3.96L2.78 3.96L2.78 3.96Q2.60 4.57 2.60 5.33L2.60 5.33L2.60 5.33Q2.60 6.08 2.78 6.71L2.78 6.71L2.78 6.71Q2.95 7.34 3.31 7.79L3.31 7.79L3.31 7.79Q3.67 8.24 4.22 8.50L4.22 8.50L4.22 8.50Q4.76 8.75 5.51 8.75ZM19.68 10.19L11.83 10.19L11.83 0.56L19.40 0.56L19.40 2.12L13.84 2.12L13.84 4.54L18.98 4.54L18.98 6.10L13.84 6.10L13.84 8.63L19.68 8.63L19.68 10.19ZM29.39 10.19L27.03 10.19L22.83 2.78L22.83 2.78Q22.87 3.08 22.89 3.38L22.89 3.38L22.89 3.38Q22.92 3.64 22.94 3.94L22.94 3.94L22.94 3.94Q22.96 4.24 22.96 4.51L22.96 4.51L22.96 10.19L21.16 10.19L21.16 0.56L23.47 0.56L27.73 8.04L27.73 8.04Q27.69 7.75 27.67 7.44L27.67 7.44L27.67 7.44Q27.64 7.17 27.62 6.84L27.62 6.84L27.62 6.84Q27.60 6.50 27.60 6.16L27.60 6.16L27.60 0.56L29.39 0.56L29.39 10.19ZM35.77 8.74L35.77 8.74L35.77 8.74Q36.34 8.74 36.75 8.58L36.75 8.58L36.75 8.58Q37.17 8.42 37.47 8.16L37.47 8.16L37.47 8.16Q37.78 7.90 37.98 7.57L37.98 7.57L37.98 7.57Q38.18 7.25 38.31 6.91L38.31 6.91L40.07 7.57L40.07 7.57Q39.85 8.09 39.51 8.59L39.51 8.59L39.51 8.59Q39.17 9.09 38.66 9.47L38.66 9.47L38.66 9.47Q38.14 9.86 37.44 10.09L37.44 10.09L37.44 10.09Q36.73 10.33 35.77 10.33L35.77 10.33L35.77 10.33Q34.52 10.33 33.61 9.96L33.61 9.96L33.61 9.96Q32.69 9.58 32.09 8.92L32.09 8.92L32.09 8.92Q31.49 8.25 31.20 7.33L31.20 7.33L31.20 7.33Q30.91 6.42 30.91 5.33L30.91 5.33L30.91 5.33Q30.91 4.20 31.20 3.29L31.20 3.29L31.20 3.29Q31.49 2.39 32.08 1.75L32.08 1.75L32.08 1.75Q32.67 1.11 33.57 0.76L33.57 0.76L33.57 0.76Q34.47 0.42 35.68 0.42L35.68 0.42L35.68 0.42Q36.63 0.42 37.33 0.62L37.33 0.62L37.33 0.62Q38.04 0.81 38.56 1.17L38.56 1.17L38.56 1.17Q39.07 1.53 39.41 2.02L39.41 2.02L39.41 2.02Q39.75 2.51 39.94 3.10L39.94 3.10L38.17 3.58L38.17 3.58Q38.07 3.27 37.87 2.99L37.87 2.99L37.87 2.99Q37.67 2.71 37.37 2.49L37.37 2.49L37.37 2.49Q37.06 2.27 36.65 2.14L36.65 2.14L36.65 2.14Q36.24 2.00 35.72 2.00L35.72 2.00L35.72 2.00Q34.99 2.00 34.47 2.24L34.47 2.24L34.47 2.24Q33.94 2.47 33.60 2.91L33.60 2.91L33.60 2.91Q33.26 3.35 33.10 3.96L33.10 3.96L33.10 3.96Q32.94 4.57 32.94 5.33L32.94 5.33L32.94 5.33Q32.94 6.08 33.10 6.71L33.10 6.71L33.10 6.71Q33.26 7.33 33.61 7.79L33.61 7.79L33.61 7.79Q33.95 8.24 34.48 8.49L34.48 8.49L34.48 8.49Q35.02 8.74 35.77 8.74ZM50.27 10.19L48.00 10.19L45.77 6.54L43.40 6.54L43.40 10.19L41.38 10.19L41.38 0.56L46.20 0.56L46.20 0.56Q47.10 0.56 47.77 0.76L47.77 0.76L47.77 0.76Q48.45 0.96 48.90 1.34L48.90 1.34L48.90 1.34Q49.35 1.71 49.57 2.24L49.57 2.24L49.57 2.24Q49.79 2.77 49.79 3.43L49.79 3.43L49.79 3.43Q49.79 3.97 49.63 4.42L49.63 4.42L49.63 4.42Q49.47 4.87 49.19 5.22L49.19 5.22L49.19 5.22Q48.90 5.56 48.51 5.80L48.51 5.80L48.51 5.80Q48.13 6.04 47.67 6.15L47.67 6.15L50.27 10.19ZM47.76 3.51L47.76 3.51L47.76 3.51Q47.76 2.81 47.30 2.47L47.30 2.47L47.30 2.47Q46.84 2.13 45.99 2.13L45.99 2.13L43.40 2.13L43.40 4.97L46.04 4.97L46.04 4.97Q46.49 4.97 46.82 4.86L46.82 4.86L46.82 4.86Q47.14 4.76 47.35 4.56L47.35 4.56L47.35 4.56Q47.56 4.37 47.66 4.10L47.66 4.10L47.66 4.10Q47.76 3.83 47.76 3.51ZM59.35 10.19L51.50 10.19L51.50 0.56L59.07 0.56L59.07 2.12L53.51 2.12L53.51 4.54L58.65 4.54L58.65 6.10L53.51 6.10L53.51 8.63L59.35 8.63L59.35 10.19ZM68.69 7.42L68.69 7.42L68.69 7.42Q68.69 8.07 68.45 8.61L68.45 8.61L68.45 8.61Q68.21 9.15 67.71 9.53L67.71 9.53L67.71 9.53Q67.20 9.91 66.42 10.12L66.42 10.12L66.42 10.12Q65.64 10.33 64.56 10.33L64.56 10.33L64.56 10.33Q63.60 10.33 62.87 10.16L62.87 10.16L62.87 10.16Q62.14 9.99 61.62 9.65L61.62 9.65L61.62 9.65Q61.09 9.32 60.77 8.82L60.77 8.82L60.77 8.82Q60.44 8.33 60.30 7.68L60.30 7.68L62.25 7.36L62.25 7.36Q62.33 7.68 62.49 7.95L62.49 7.95L62.49 7.95Q62.64 8.22 62.92 8.41L62.92 8.41L62.92 8.41Q63.20 8.61 63.61 8.71L63.61 8.71L63.61 8.71Q64.03 8.82 64.61 8.82L64.61 8.82L64.61 8.82Q65.64 8.82 66.18 8.51L66.18 8.51L66.18 8.51Q66.73 8.20 66.73 7.53L66.73 7.53L66.73 7.53Q66.73 7.14 66.51 6.88L66.51 6.88L66.51 6.88Q66.29 6.63 65.93 6.47L65.93 6.47L65.93 6.47Q65.56 6.30 65.09 6.19L65.09 6.19L65.09 6.19Q64.62 6.08 64.11 5.98L64.11 5.98L64.11 5.98Q63.70 5.89 63.29 5.78L63.29 5.78L63.29 5.78Q62.88 5.68 62.50 5.54L62.50 5.54L62.50 5.54Q62.13 5.39 61.81 5.20L61.81 5.20L61.81 5.20Q61.49 5.00 61.25 4.71L61.25 4.71L61.25 4.71Q61.02 4.42 60.88 4.03L60.88 4.03L60.88 4.03Q60.75 3.64 60.75 3.11L60.75 3.11L60.75 3.11Q60.75 2.39 61.04 1.88L61.04 1.88L61.04 1.88Q61.33 1.37 61.83 1.04L61.83 1.04L61.83 1.04Q62.34 0.72 63.05 0.57L63.05 0.57L63.05 0.57Q63.75 0.42 64.59 0.42L64.59 0.42L64.59 0.42Q65.53 0.42 66.20 0.56L66.20 0.56L66.20 0.56Q66.88 0.71 67.33 1.01L67.33 1.01L67.33 1.01Q67.79 1.31 68.05 1.77L68.05 1.77L68.05 1.77Q68.31 2.22 68.43 2.83L68.43 2.83L66.48 3.10L66.48 3.10Q66.33 2.47 65.87 2.16L65.87 2.16L65.87 2.16Q65.41 1.85 64.54 1.85L64.54 1.85L64.54 1.85Q64.01 1.85 63.66 1.94L63.66 1.94L63.66 1.94Q63.31 2.03 63.10 2.19L63.10 2.19L63.10 2.19Q62.89 2.34 62.80 2.55L62.80 2.55L62.80 2.55Q62.71 2.76 62.71 2.99L62.71 2.99L62.71 2.99Q62.71 3.35 62.88 3.58L62.88 3.58L62.88 3.58Q63.05 3.81 63.36 3.96L63.36 3.96L63.36 3.96Q63.67 4.12 64.10 4.22L64.10 4.22L64.10 4.22Q64.52 4.33 65.04 4.44L65.04 4.44L65.04 4.44Q65.49 4.53 65.93 4.64L65.93 4.64L65.93 4.64Q66.38 4.74 66.78 4.89L66.78 4.89L66.78 4.89Q67.18 5.03 67.53 5.24L67.53 5.24L67.53 5.24Q67.88 5.44 68.14 5.74L68.14 5.74L68.14 5.74Q68.39 6.04 68.54 6.45L68.54 6.45L68.54 6.45Q68.69 6.86 68.69 7.42ZM77.64 2.12L74.52 2.12L74.52 10.19L72.50 10.19L72.50 2.12L69.39 2.12L69.39 0.56L77.64 0.56L77.64 2.12Z"></path></g><!----><!----></svg>