<svg data-v-423bf9ae="" xmlns="http://www.w3.org/2000/svg" viewBox="0 0 583 110" class="iconLeftSlogan"><!----><!----><!----><g data-v-423bf9ae="" id="443eafca-6873-408f-91e5-1260da110f66" fill="black" transform="matrix(6.054490506946714,0,0,6.054490506946714,112.4167508516147,-2.5428861735674815)"><path d="M5.51 8.75L5.51 8.75L5.51 8.75Q5.95 8.75 6.35 8.68L6.35 8.68L6.35 8.68Q6.75 8.61 7.10 8.50L7.10 8.50L7.10 8.50Q7.44 8.39 7.72 8.24L7.72 8.24L7.72 8.24Q8.00 8.09 8.18 7.94L8.18 7.94L8.18 6.60L5.82 6.60L5.82 5.11L10.02 5.11L10.02 8.65L10.02 8.65Q9.69 8.99 9.23 9.29L9.23 9.29L9.23 9.29Q8.76 9.60 8.18 9.83L8.18 9.83L8.18 9.83Q7.60 10.06 6.91 10.19L6.91 10.19L6.91 10.19Q6.23 10.33 5.46 10.33L5.46 10.33L5.46 10.33Q4.18 10.33 3.25 9.96L3.25 9.96L3.25 9.96Q2.33 9.58 1.74 8.92L1.74 8.92L1.74 8.92Q1.14 8.25 0.86 7.33L0.86 7.33L0.86 7.33Q0.57 6.42 0.57 5.33L0.57 5.33L0.57 5.33Q0.57 4.20 0.88 3.29L0.88 3.29L0.88 3.29Q1.18 2.39 1.79 1.75L1.79 1.75L1.79 1.75Q2.40 1.11 3.33 0.76L3.33 0.76L3.33 0.76Q4.25 0.42 5.50 0.42L5.50 0.42L5.50 0.42Q6.41 0.42 7.12 0.59L7.12 0.59L7.12 0.59Q7.83 0.77 8.36 1.10L8.36 1.10L8.36 1.10Q8.89 1.43 9.25 1.89L9.25 1.89L9.25 1.89Q9.60 2.35 9.82 2.93L9.82 2.93L7.96 3.49L7.96 3.49Q7.83 3.19 7.63 2.92L7.63 2.92L7.63 2.92Q7.42 2.65 7.12 2.44L7.12 2.44L7.12 2.44Q6.82 2.24 6.42 2.12L6.42 2.12L6.42 2.12Q6.02 2.00 5.50 2.00L5.50 2.00L5.50 2.00Q4.75 2.00 4.20 2.24L4.20 2.24L4.20 2.24Q3.66 2.47 3.30 2.91L3.30 2.91L3.30 2.91Q2.95 3.35 2.78 3.96L2.78 3.96L2.78 3.96Q2.60 4.57 2.60 5.33L2.60 5.33L2.60 5.33Q2.60 6.08 2.78 6.71L2.78 6.71L2.78 6.71Q2.95 7.34 3.31 7.79L3.31 7.79L3.31 7.79Q3.67 8.24 4.22 8.50L4.22 8.50L4.22 8.50Q4.76 8.75 5.51 8.75ZM19.68 10.19L11.83 10.19L11.83 0.56L19.40 0.56L19.40 2.12L13.84 2.12L13.84 4.54L18.98 4.54L18.98 6.10L13.84 6.10L13.84 8.63L19.68 8.63L19.68 10.19ZM29.39 10.19L27.03 10.19L22.83 2.78L22.83 2.78Q22.87 3.08 22.89 3.38L22.89 3.38L22.89 3.38Q22.92 3.64 22.94 3.94L22.94 3.94L22.94 3.94Q22.96 4.24 22.96 4.51L22.96 4.51L22.96 10.19L21.16 10.19L21.16 0.56L23.47 0.56L27.73 8.04L27.73 8.04Q27.69 7.75 27.67 7.44L27.67 7.44L27.67 7.44Q27.64 7.17 27.62 6.84L27.62 6.84L27.62 6.84Q27.60 6.50 27.60 6.16L27.60 6.16L27.60 0.56L29.39 0.56L29.39 10.19ZM35.77 8.74L35.77 8.74L35.77 8.74Q36.34 8.74 36.75 8.58L36.75 8.58L36.75 8.58Q37.17 8.42 37.47 8.16L37.47 8.16L37.47 8.16Q37.78 7.90 37.98 7.57L37.98 7.57L37.98 7.57Q38.18 7.25 38.31 6.91L38.31 6.91L40.07 7.57L40.07 7.57Q39.85 8.09 39.51 8.59L39.51 8.59L39.51 8.59Q39.17 9.09 38.66 9.47L38.66 9.47L38.66 9.47Q38.14 9.86 37.44 10.09L37.44 10.09L37.44 10.09Q36.73 10.33 35.77 10.33L35.77 10.33L35.77 10.33Q34.52 10.33 33.61 9.96L33.61 9.96L33.61 9.96Q32.69 9.58 32.09 8.92L32.09 8.92L32.09 8.92Q31.49 8.25 31.20 7.33L31.20 7.33L31.20 7.33Q30.91 6.42 30.91 5.33L30.91 5.33L30.91 5.33Q30.91 4.20 31.20 3.29L31.20 3.29L31.20 3.29Q31.49 2.39 32.08 1.75L32.08 1.75L32.08 1.75Q32.67 1.11 33.57 0.76L33.57 0.76L33.57 0.76Q34.47 0.42 35.68 0.42L35.68 0.42L35.68 0.42Q36.63 0.42 37.33 0.62L37.33 0.62L37.33 0.62Q38.04 0.81 38.56 1.17L38.56 1.17L38.56 1.17Q39.07 1.53 39.41 2.02L39.41 2.02L39.41 2.02Q39.75 2.51 39.94 3.10L39.94 3.10L38.17 3.58L38.17 3.58Q38.07 3.27 37.87 2.99L37.87 2.99L37.87 2.99Q37.67 2.71 37.37 2.49L37.37 2.49L37.37 2.49Q37.06 2.27 36.65 2.14L36.65 2.14L36.65 2.14Q36.24 2.00 35.72 2.00L35.72 2.00L35.72 2.00Q34.99 2.00 34.47 2.24L34.47 2.24L34.47 2.24Q33.94 2.47 33.60 2.91L33.60 2.91L33.60 2.91Q33.26 3.35 33.10 3.96L33.10 3.96L33.10 3.96Q32.94 4.57 32.94 5.33L32.94 5.33L32.94 5.33Q32.94 6.08 33.10 6.71L33.10 6.71L33.10 6.71Q33.26 7.33 33.61 7.79L33.61 7.79L33.61 7.79Q33.95 8.24 34.48 8.49L34.48 8.49L34.48 8.49Q35.02 8.74 35.77 8.74ZM50.27 10.19L48.00 10.19L45.77 6.54L43.40 6.54L43.40 10.19L41.38 10.19L41.38 0.56L46.20 0.56L46.20 0.56Q47.10 0.56 47.77 0.76L47.77 0.76L47.77 0.76Q48.45 0.96 48.90 1.34L48.90 1.34L48.90 1.34Q49.35 1.71 49.57 2.24L49.57 2.24L49.57 2.24Q49.79 2.77 49.79 3.43L49.79 3.43L49.79 3.43Q49.79 3.97 49.63 4.42L49.63 4.42L49.63 4.42Q49.47 4.87 49.19 5.22L49.19 5.22L49.19 5.22Q48.90 5.56 48.51 5.80L48.51 5.80L48.51 5.80Q48.13 6.04 47.67 6.15L47.67 6.15L50.27 10.19ZM47.76 3.51L47.76 3.51L47.76 3.51Q47.76 2.81 47.30 2.47L47.30 2.47L47.30 2.47Q46.84 2.13 45.99 2.13L45.99 2.13L43.40 2.13L43.40 4.97L46.04 4.97L46.04 4.97Q46.49 4.97 46.82 4.86L46.82 4.86L46.82 4.86Q47.14 4.76 47.35 4.56L47.35 4.56L47.35 4.56Q47.56 4.37 47.66 4.10L47.66 4.10L47.66 4.10Q47.76 3.83 47.76 3.51ZM59.35 10.19L51.50 10.19L51.50 0.56L59.07 0.56L59.07 2.12L53.51 2.12L53.51 4.54L58.65 4.54L58.65 6.10L53.51 6.10L53.51 8.63L59.35 8.63L59.35 10.19ZM68.69 7.42L68.69 7.42L68.69 7.42Q68.69 8.07 68.45 8.61L68.45 8.61L68.45 8.61Q68.21 9.15 67.71 9.53L67.71 9.53L67.71 9.53Q67.20 9.91 66.42 10.12L66.42 10.12L66.42 10.12Q65.64 10.33 64.56 10.33L64.56 10.33L64.56 10.33Q63.60 10.33 62.87 10.16L62.87 10.16L62.87 10.16Q62.14 9.99 61.62 9.65L61.62 9.65L61.62 9.65Q61.09 9.32 60.77 8.82L60.77 8.82L60.77 8.82Q60.44 8.33 60.30 7.68L60.30 7.68L62.25 7.36L62.25 7.36Q62.33 7.68 62.49 7.95L62.49 7.95L62.49 7.95Q62.64 8.22 62.92 8.41L62.92 8.41L62.92 8.41Q63.20 8.61 63.61 8.71L63.61 8.71L63.61 8.71Q64.03 8.82 64.61 8.82L64.61 8.82L64.61 8.82Q65.64 8.82 66.18 8.51L66.18 8.51L66.18 8.51Q66.73 8.20 66.73 7.53L66.73 7.53L66.73 7.53Q66.73 7.14 66.51 6.88L66.51 6.88L66.51 6.88Q66.29 6.63 65.93 6.47L65.93 6.47L65.93 6.47Q65.56 6.30 65.09 6.19L65.09 6.19L65.09 6.19Q64.62 6.08 64.11 5.98L64.11 5.98L64.11 5.98Q63.70 5.89 63.29 5.78L63.29 5.78L63.29 5.78Q62.88 5.68 62.50 5.54L62.50 5.54L62.50 5.54Q62.13 5.39 61.81 5.20L61.81 5.20L61.81 5.20Q61.49 5.00 61.25 4.71L61.25 4.71L61.25 4.71Q61.02 4.42 60.88 4.03L60.88 4.03L60.88 4.03Q60.75 3.64 60.75 3.11L60.75 3.11L60.75 3.11Q60.75 2.39 61.04 1.88L61.04 1.88L61.04 1.88Q61.33 1.37 61.83 1.04L61.83 1.04L61.83 1.04Q62.34 0.72 63.05 0.57L63.05 0.57L63.05 0.57Q63.75 0.42 64.59 0.42L64.59 0.42L64.59 0.42Q65.53 0.42 66.20 0.56L66.20 0.56L66.20 0.56Q66.88 0.71 67.33 1.01L67.33 1.01L67.33 1.01Q67.79 1.31 68.05 1.77L68.05 1.77L68.05 1.77Q68.31 2.22 68.43 2.83L68.43 2.83L66.48 3.10L66.48 3.10Q66.33 2.47 65.87 2.16L65.87 2.16L65.87 2.16Q65.41 1.85 64.54 1.85L64.54 1.85L64.54 1.85Q64.01 1.85 63.66 1.94L63.66 1.94L63.66 1.94Q63.31 2.03 63.10 2.19L63.10 2.19L63.10 2.19Q62.89 2.34 62.80 2.55L62.80 2.55L62.80 2.55Q62.71 2.76 62.71 2.99L62.71 2.99L62.71 2.99Q62.71 3.35 62.88 3.58L62.88 3.58L62.88 3.58Q63.05 3.81 63.36 3.96L63.36 3.96L63.36 3.96Q63.67 4.12 64.10 4.22L64.10 4.22L64.10 4.22Q64.52 4.33 65.04 4.44L65.04 4.44L65.04 4.44Q65.49 4.53 65.93 4.64L65.93 4.64L65.93 4.64Q66.38 4.74 66.78 4.89L66.78 4.89L66.78 4.89Q67.18 5.03 67.53 5.24L67.53 5.24L67.53 5.24Q67.88 5.44 68.14 5.74L68.14 5.74L68.14 5.74Q68.39 6.04 68.54 6.45L68.54 6.45L68.54 6.45Q68.69 6.86 68.69 7.42ZM77.64 2.12L74.52 2.12L74.52 10.19L72.50 10.19L72.50 2.12L69.39 2.12L69.39 0.56L77.64 0.56L77.64 2.12Z"></path></g><!----><g data-v-423bf9ae="" id="a2fb1441-6a25-407d-b732-45c81a367720" transform="matrix(1.1006409539116753,0,0,1.1006409539116753,-6.576497001130377,0.4391580875775034)" stroke="none" fill="black"><path d="M6.91 44.373l21.113-.525 5.357 3.151L45.775 49.1h.735l8.613-9.454.735-2.206.525-.735h1.05v-.735l-1.785-1.156-.631-1.891.315-1.786.735-1.05 1.365-.63-.63-.84-.841-1.471.735-2.206.735-1.471.631-.945.525-.735-1.051-1.576-.841-1.576-.104-.945 5.042.84 4.622.562s1.759.131 2.914-.394c1.156-.525 3.493-1.208 3.493-1.208s1.785-2.531 1.785-2.951c0-.42-.63-1.576-.63-1.576l-3.987-.735-5.673-1.261-5.566-2.311-2.837-1.156s-4.411.21-5.462.735c-1.05.525-5.146 1.576-5.146 1.576s-4.202 1.26-4.465 1.366c-.263.105-4.779 2.311-4.884 2.731-.105.42-4.307 3.676-4.307 3.676l-2.626.84-4.097.315-4.412.63-4.201.105h-3.151l-3.992.42-2.626-.21v24.159l.525.528z"></path><path d="M57.75 18.848s1.155 2.836 1.996 2.626c.84-.21 8.508.525 11.449-.42S84.01 15.381 86.847 9.919c0 0-1.051-1.681-1.366-1.891-.314-.21-.314-2.836-.314-2.836s-4.832.315-5.463 0c-.63-.315-3.256-1.576-4.307-1.576-1.05 0-8.928-.315-10.398-.525 0 0-4.412-4.412-14.601-1.786l-4.202 3.781 2.447 2.729 4.591-1.364L56.28 6.4l6.688 3.011 11.484 2.818 1.681 1.559-.945 2.117-2.18 2.504-4.333 1.523-4.411-.141-6.514-.943zM78.601 29.562s-7.825-.07-8.176-.42c-.351-.351-10.153-.63-10.084-.84.07-.21-2.731-.42-2.731-.42s-.279-2.731 0-3.361c.281-.63 3.361-1.821 3.361-1.821l6.373-.49 2.451.019 3.353-.95s3.58-.399 4.98.511.473 7.772.473 7.772zM78.901 34.499s-.406-3.046-1.299-3.571c-.893-.525-6.197-.683-6.197-.683s-3.939-.683-5.199-.683c-1.261 0-4.454-.107-7.237.838 0 0-1.334.139-2.409.966-1.076.827-.105 2.276-.105 2.276l.561.857 2.994 1.05s4.779.578 5.304.578c.525 0 4.149.788 4.149.788l2.521.63 1.47.473 1.996-.578 2.153-1.418 1.298-1.523zM72.736 39.068l-3.8-1.313-3.571-.578s-3.203-.21-3.414 0c-.21.21-3.114-.478-4.779.42-1.665.898-.473 3.806-.262 3.925.21.119 2.048 1.432 2.048 1.432l3.151.578 3.203.683 4.202.315 3.204.683 1.418-.578 1.103-1.05.368-1.103v-.959l-2.871-2.455zM71.931 46.21s.84 1.943.63 2.889-1.418 1.576-1.418 1.576h-2.949l-2.24-.42L61.9 48.68l-2.206-.788-.525-1.418.368-1.996 5.111.579 7.283 1.153z"></path><path d="M92.413 73.049s-1.365-4.098-4.831-7.773c0 0-5.463-7.878-6.723-8.508-1.261-.631-1.261-3.887-6.408-7.248l-1.295 1.12-.771.771 1.471 5.445-2.941-5.096-4.201-.21-.761 6.427-.57-6.427s-4.621-2.59-5.392-2.451-3.691 3.975-3.691 3.975l1.17-3.975.631-.98v-2.872l.56-1.4-1.26-.351-5.743 5.603 4.202-6.092s-.315-1.366-.63-1.471c-.315-.105-1.208.42-1.208.42l-7.091 7.878s-5.672 5.567-7.458 7.458c-1.785 1.891-5.777 7.982-6.617 9.663-.841 1.681-3.046 4.622-3.467 6.827-.42 2.207-.314 5.043 0 6.408.315 1.365 1.996 4.412 2.416 4.727.421.314 3.151 3.467 4.307 4.307.457.332 1.145 1.043 1.841 1.826.355.398 3.852-3.639 4.182-3.242.66.791-2.925 4.465-2.713 4.761.524.735 5.829 6.319 9.821 6.845 3.991.525 7.247-.91 7.668-1.225.134-.102.646-5.067 1.155-5.199.499-.131.191 4.727.986 4.711.925-.02 2.406.211 3.635.557 3.361.945 6.513.631 7.248.525.579-.082 2.984-1.274 4.441-1.827.393-.149-.335-3.839-.135-3.861.08-.009 1.261 3.563 1.435 3.542 1.885-.234 8.79-1.18 9.175-1.949.42-.841 1.051-.316 3.256-5.043 2.206-4.727 2.626-3.676 4.307-6.827-.001-.001 2.415-6.303-.001-9.769zM51.832 59.965l-3.028 3.997-1.222 1.232-2.322 3.399-2.985 4.813s.257-.839.696-1.981c.438-1.144 1.058-2.591 1.781-3.807 1.448-2.432 5.936-7.871 5.936-7.871l2.385-3.205-1.241 3.423zm6.343 19.422l-.42 4.307-.945-4.307 3.803-7.668-2.438 7.668zm18.882 1.681l-1.696 3.886s1.074-3.392.763-5.695c-.311-2.303-1.444-12.173-1.499-12.666-.056-.493 3.224 8.163 3.224 9.181s-.792 5.294-.792 5.294z"></path></g><!----><g data-v-423bf9ae="" id="5e51a01f-3cb2-42b0-b0ee-42769ab18954" fill="black" transform="matrix(0.6769838838593407,0,0,0.6769838838593407,114.97418924513363,56.15473177238482)"><path d="M1.32 15.68L1.32 5.88L7.25 5.88L7.25 6.97L2.49 6.97L2.49 10.22L7.17 10.22L7.17 11.31L2.49 11.31L2.49 14.59L7.34 14.59L7.34 15.68L1.32 15.68ZM16.79 15.68L16.79 5.88L17.96 5.88L17.96 14.59L23.09 14.59L23.09 15.68L16.79 15.68ZM32.45 15.68L32.45 5.88L38.39 5.88L38.39 6.97L33.63 6.97L33.63 10.22L38.30 10.22L38.30 11.31L33.63 11.31L33.63 14.59L38.47 14.59L38.47 15.68L32.45 15.68ZM49.85 15.68L47.08 5.88L48.34 5.88L50.90 15.18L51.07 15.18L53.63 5.88L54.89 5.88L52.12 15.68L49.85 15.68ZM69.37 15.68L68.66 13.24L64.46 13.24L63.74 15.68L62.48 15.68L65.45 5.88L67.66 5.88L70.63 15.68L69.37 15.68ZM66.64 6.38L66.47 6.38L64.78 12.15L68.33 12.15L66.64 6.38ZM78.68 6.97L78.68 5.88L85.57 5.88L85.57 6.97L82.71 6.97L82.71 15.68L81.54 15.68L81.54 6.97L78.68 6.97ZM94.72 15.68L94.72 5.88L100.66 5.88L100.66 6.97L95.90 6.97L95.90 10.22L100.58 10.22L100.58 11.31L95.90 11.31L95.90 14.59L100.74 14.59L100.74 15.68L94.72 15.68ZM125.72 6.97L125.72 5.88L131.94 5.88L131.94 6.97L129.42 6.97L129.42 14.59L131.94 14.59L131.94 15.68L125.72 15.68L125.72 14.59L128.24 14.59L128.24 6.97L125.72 6.97ZM143.49 5.88L146.31 15.18L146.48 15.18L146.48 5.88L147.66 5.88L147.66 15.68L145.31 15.68L142.48 6.38L142.31 6.38L142.31 15.68L141.13 15.68L141.13 5.88L143.49 5.88ZM158.83 15.68L156.06 5.88L157.32 5.88L159.88 15.18L160.05 15.18L162.61 5.88L163.87 5.88L161.10 15.68L158.83 15.68ZM172.56 15.68L172.56 5.88L178.50 5.88L178.50 6.97L173.74 6.97L173.74 10.22L178.42 10.22L178.42 11.31L173.74 11.31L173.74 14.59L178.58 14.59L178.58 15.68L172.56 15.68ZM193.41 9.21L193.41 8.71L193.41 8.71Q193.41 8.23 193.22 7.87L193.22 7.87L193.22 7.87Q193.03 7.50 192.71 7.27L192.71 7.27L192.71 7.27Q192.39 7.03 191.97 6.90L191.97 6.90L191.97 6.90Q191.55 6.78 191.09 6.78L191.09 6.78L191.09 6.78Q190.68 6.78 190.32 6.88L190.32 6.88L190.32 6.88Q189.95 6.99 189.67 7.18L189.67 7.18L189.67 7.18Q189.38 7.38 189.21 7.66L189.21 7.66L189.21 7.66Q189.04 7.95 189.04 8.33L189.04 8.33L189.04 8.41L189.04 8.41Q189.04 8.82 189.21 9.11L189.21 9.11L189.21 9.11Q189.38 9.39 189.71 9.60L189.71 9.60L189.71 9.60Q190.04 9.80 190.53 9.93L190.53 9.93L190.53 9.93Q191.02 10.07 191.67 10.16L191.67 10.16L191.67 10.16Q193.21 10.40 193.94 11.07L193.94 11.07L193.94 11.07Q194.67 11.73 194.67 12.85L194.67 12.85L194.67 13.02L194.67 13.02Q194.67 13.65 194.45 14.17L194.45 14.17L194.45 14.17Q194.24 14.70 193.81 15.08L193.81 15.08L193.81 15.08Q193.38 15.46 192.75 15.67L192.75 15.67L192.75 15.67Q192.12 15.88 191.30 15.88L191.30 15.88L191.30 15.88Q190.36 15.88 189.64 15.60L189.64 15.60L189.64 15.60Q188.92 15.33 188.43 14.85L188.43 14.85L188.43 14.85Q187.95 14.36 187.70 13.71L187.70 13.71L187.70 13.71Q187.45 13.06 187.45 12.29L187.45 12.29L187.45 11.87L188.62 11.87L188.62 12.21L188.62 12.21Q188.62 13.50 189.33 14.14L189.33 14.14L189.33 14.14Q190.04 14.78 191.30 14.78L191.30 14.78L191.30 14.78Q192.39 14.78 192.94 14.30L192.94 14.30L192.94 14.30Q193.49 13.82 193.49 13.02L193.49 13.02L193.49 12.94L193.49 12.94Q193.49 12.17 192.93 11.76L192.93 11.76L192.93 11.76Q192.36 11.35 191.09 11.17L191.09 11.17L191.09 11.17Q190.34 11.07 189.75 10.87L189.75 10.87L189.75 10.87Q189.15 10.67 188.73 10.34L188.73 10.34L188.73 10.34Q188.31 10.01 188.09 9.55L188.09 9.55L188.09 9.55Q187.87 9.09 187.87 8.46L187.87 8.46L187.87 8.29L187.87 8.29Q187.87 7.71 188.10 7.24L188.10 7.24L188.10 7.24Q188.34 6.76 188.77 6.41L188.77 6.41L188.77 6.41Q189.20 6.06 189.79 5.87L189.79 5.87L189.79 5.87Q190.39 5.68 191.10 5.68L191.10 5.68L191.10 5.68Q191.93 5.68 192.58 5.92L192.58 5.92L192.58 5.92Q193.23 6.16 193.68 6.56L193.68 6.56L193.68 6.56Q194.12 6.96 194.36 7.50L194.36 7.50L194.36 7.50Q194.59 8.04 194.59 8.62L194.59 8.62L194.59 9.21L193.41 9.21ZM203.22 6.97L203.22 5.88L210.11 5.88L210.11 6.97L207.26 6.97L207.26 15.68L206.08 15.68L206.08 6.97L203.22 6.97ZM218.60 15.68L218.60 5.88L220.84 5.88L222.15 15.18L222.32 15.18L223.64 5.88L225.88 5.88L225.88 15.68L224.78 15.68L224.78 6.38L224.62 6.38L223.30 15.68L221.17 15.68L219.86 6.38L219.69 6.38L219.69 15.68L218.60 15.68ZM234.84 15.68L234.84 5.88L240.77 5.88L240.77 6.97L236.01 6.97L236.01 10.22L240.69 10.22L240.69 11.31L236.01 11.31L236.01 14.59L240.86 14.59L240.86 15.68L234.84 15.68ZM252.46 5.88L255.29 15.18L255.46 15.18L255.46 5.88L256.63 5.88L256.63 15.68L254.28 15.68L251.45 6.38L251.29 6.38L251.29 15.68L250.11 15.68L250.11 5.88L252.46 5.88ZM265.50 6.97L265.50 5.88L272.38 5.88L272.38 6.97L269.53 6.97L269.53 15.68L268.35 15.68L268.35 6.97L265.50 6.97ZM286.82 9.21L286.82 8.71L286.82 8.71Q286.82 8.23 286.63 7.87L286.63 7.87L286.63 7.87Q286.44 7.50 286.12 7.27L286.12 7.27L286.12 7.27Q285.80 7.03 285.38 6.90L285.38 6.90L285.38 6.90Q284.96 6.78 284.49 6.78L284.49 6.78L284.49 6.78Q284.09 6.78 283.72 6.88L283.72 6.88L283.72 6.88Q283.36 6.99 283.07 7.18L283.07 7.18L283.07 7.18Q282.79 7.38 282.62 7.66L282.62 7.66L282.62 7.66Q282.45 7.95 282.45 8.33L282.45 8.33L282.45 8.41L282.45 8.41Q282.45 8.82 282.62 9.11L282.62 9.11L282.62 9.11Q282.79 9.39 283.12 9.60L283.12 9.60L283.12 9.60Q283.44 9.80 283.93 9.93L283.93 9.93L283.93 9.93Q284.42 10.07 285.08 10.16L285.08 10.16L285.08 10.16Q286.62 10.40 287.35 11.07L287.35 11.07L287.35 11.07Q288.08 11.73 288.08 12.85L288.08 12.85L288.08 13.02L288.08 13.02Q288.08 13.65 287.86 14.17L287.86 14.17L287.86 14.17Q287.64 14.70 287.22 15.08L287.22 15.08L287.22 15.08Q286.79 15.46 286.16 15.67L286.16 15.67L286.16 15.67Q285.53 15.88 284.70 15.88L284.70 15.88L284.70 15.88Q283.77 15.88 283.05 15.60L283.05 15.60L283.05 15.60Q282.32 15.33 281.84 14.85L281.84 14.85L281.84 14.85Q281.36 14.36 281.11 13.71L281.11 13.71L281.11 13.71Q280.85 13.06 280.85 12.29L280.85 12.29L280.85 11.87L282.03 11.87L282.03 12.21L282.03 12.21Q282.03 13.50 282.74 14.14L282.74 14.14L282.74 14.14Q283.44 14.78 284.70 14.78L284.70 14.78L284.70 14.78Q285.80 14.78 286.35 14.30L286.35 14.30L286.35 14.30Q286.90 13.82 286.90 13.02L286.90 13.02L286.90 12.94L286.90 12.94Q286.90 12.17 286.34 11.76L286.34 11.76L286.34 11.76Q285.77 11.35 284.49 11.17L284.49 11.17L284.49 11.17Q283.75 11.07 283.16 10.87L283.16 10.87L283.16 10.87Q282.56 10.67 282.14 10.34L282.14 10.34L282.14 10.34Q281.72 10.01 281.50 9.55L281.50 9.55L281.50 9.55Q281.27 9.09 281.27 8.46L281.27 8.46L281.27 8.29L281.27 8.29Q281.27 7.71 281.51 7.24L281.51 7.24L281.51 7.24Q281.75 6.76 282.18 6.41L282.18 6.41L282.18 6.41Q282.60 6.06 283.20 5.87L283.20 5.87L283.20 5.87Q283.79 5.68 284.51 5.68L284.51 5.68L284.51 5.68Q285.33 5.68 285.99 5.92L285.99 5.92L285.99 5.92Q286.64 6.16 287.08 6.56L287.08 6.56L287.08 6.56Q287.53 6.96 287.76 7.50L287.76 7.50L287.76 7.50Q287.99 8.04 287.99 8.62L287.99 8.62L287.99 9.21L286.82 9.21ZM299.10 14.90L299.10 14.90L299.10 14.90Q299.10 14.49 299.38 14.20L299.38 14.20L299.38 14.20Q299.67 13.92 300.08 13.92L300.08 13.92L300.08 13.92Q300.48 13.92 300.77 14.20L300.77 14.20L300.77 14.20Q301.06 14.49 301.06 14.90L301.06 14.90L301.06 16.27L301.06 16.27Q301.06 16.74 300.76 17.05L300.76 17.05L300.76 17.05Q300.45 17.36 299.98 17.36L299.98 17.36L299.26 17.36L299.26 16.60L299.92 16.60L299.92 16.60Q300.30 16.60 300.30 16.18L300.30 16.18L300.30 15.83L300.30 15.83Q300.19 15.88 300.06 15.88L300.06 15.88L300.06 15.88Q299.67 15.88 299.38 15.59L299.38 15.59L299.38 15.59Q299.10 15.30 299.10 14.90ZM328.24 15.68L328.24 5.88L334.18 5.88L334.18 6.97L329.42 6.97L329.42 10.22L334.10 10.22L334.10 11.31L329.42 11.31L329.42 14.59L334.26 14.59L334.26 15.68L328.24 15.68ZM343.14 15.68L343.14 5.88L345.38 5.88L346.70 15.18L346.86 15.18L348.18 5.88L350.42 5.88L350.42 15.68L349.33 15.68L349.33 6.38L349.16 6.38L347.84 15.68L345.72 15.68L344.40 6.38L344.23 6.38L344.23 15.68L343.14 15.68ZM362.75 11.65L360.43 11.65L360.43 15.68L359.25 15.68L359.25 5.88L362.75 5.88L362.75 5.88Q363.51 5.88 364.07 6.10L364.07 6.10L364.07 6.10Q364.63 6.31 365.00 6.68L365.00 6.68L365.00 6.68Q365.37 7.04 365.56 7.53L365.56 7.53L365.56 7.53Q365.75 8.01 365.75 8.54L365.75 8.54L365.75 8.96L365.75 8.96Q365.75 9.49 365.56 9.98L365.56 9.98L365.56 9.98Q365.37 10.47 364.99 10.84L364.99 10.84L364.99 10.84Q364.62 11.21 364.06 11.43L364.06 11.43L364.06 11.43Q363.50 11.65 362.75 11.65L362.75 11.65ZM360.43 6.97L360.43 10.56L362.61 10.56L362.61 10.56Q364.57 10.56 364.57 8.88L364.57 8.88L364.57 8.62L364.57 8.62Q364.57 7.88 364.09 7.43L364.09 7.43L364.09 7.43Q363.61 6.97 362.61 6.97L362.61 6.97L360.43 6.97ZM374.47 11.87L374.47 9.69L374.47 9.69Q374.47 7.78 375.38 6.73L375.38 6.73L375.38 6.73Q376.29 5.68 377.92 5.68L377.92 5.68L377.92 5.68Q379.54 5.68 380.45 6.73L380.45 6.73L380.45 6.73Q381.36 7.78 381.36 9.69L381.36 9.69L381.36 11.87L381.36 11.87Q381.36 13.83 380.45 14.85L380.45 14.85L380.45 14.85Q379.54 15.88 377.92 15.88L377.92 15.88L377.92 15.88Q376.29 15.88 375.38 14.85L375.38 14.85L375.38 14.85Q374.47 13.83 374.47 11.87L374.47 11.87ZM377.92 14.78L377.92 14.78L377.92 14.78Q379.05 14.78 379.62 14.01L379.62 14.01L379.62 14.01Q380.18 13.23 380.18 11.79L380.18 11.79L380.18 9.77L380.18 9.77Q380.18 8.43 379.62 7.60L379.62 7.60L379.62 7.60Q379.05 6.78 377.92 6.78L377.92 6.78L377.92 6.78Q376.78 6.78 376.21 7.60L376.21 7.60L376.21 7.60Q375.65 8.43 375.65 9.77L375.65 9.77L375.65 11.79L375.65 11.79Q375.65 13.23 376.21 14.01L376.21 14.01L376.21 14.01Q376.78 14.78 377.92 14.78ZM397.61 5.88L396.62 15.68L394.48 15.68L393.57 6.38L393.40 6.38L392.49 15.68L390.35 15.68L389.35 5.88L390.42 5.88L391.36 15.18L391.52 15.18L392.41 5.88L394.56 5.88L395.44 15.18L395.61 15.18L396.55 5.88L397.61 5.88ZM406.08 15.68L406.08 5.88L412.02 5.88L412.02 6.97L407.26 6.97L407.26 10.22L411.94 10.22L411.94 11.31L407.26 11.31L407.26 14.59L412.10 14.59L412.10 15.68L406.08 15.68ZM427.69 12.15L427.69 15.68L426.51 15.68L426.51 12.40L426.51 12.40Q426.51 12.04 426.34 11.84L426.34 11.84L426.34 11.84Q426.17 11.65 425.75 11.65L425.75 11.65L422.70 11.65L422.70 15.68L421.53 15.68L421.53 5.88L425.03 5.88L425.03 5.88Q425.78 5.88 426.34 6.10L426.34 6.10L426.34 6.10Q426.90 6.31 427.27 6.68L427.27 6.68L427.27 6.68Q427.64 7.04 427.83 7.53L427.83 7.53L427.83 7.53Q428.02 8.01 428.02 8.54L428.02 8.54L428.02 8.96L428.02 8.96Q428.02 9.51 427.72 10.05L427.72 10.05L427.72 10.05Q427.42 10.60 426.79 10.89L426.79 10.89L426.79 11.06L426.79 11.06Q427.21 11.13 427.45 11.40L427.45 11.40L427.45 11.40Q427.69 11.66 427.69 12.15L427.69 12.15ZM422.70 6.97L422.70 10.56L424.89 10.56L424.89 10.56Q425.88 10.56 426.36 10.13L426.36 10.13L426.36 10.13Q426.85 9.70 426.85 8.88L426.85 8.88L426.85 8.62L426.85 8.62Q426.85 7.88 426.36 7.43L426.36 7.43L426.36 7.43Q425.88 6.97 424.89 6.97L424.89 6.97L422.70 6.97ZM452.80 15.68L452.80 5.88L458.82 5.88L458.82 6.97L453.98 6.97L453.98 10.22L458.74 10.22L458.74 11.31L453.98 11.31L453.98 15.68L452.80 15.68ZM467.96 5.88L469.14 5.88L469.14 12.38L469.14 12.38Q469.14 13.57 469.69 14.17L469.69 14.17L469.69 14.17Q470.25 14.78 471.32 14.78L471.32 14.78L471.32 14.78Q472.40 14.78 472.95 14.17L472.95 14.17L472.95 14.17Q473.51 13.57 473.51 12.38L473.51 12.38L473.51 5.88L474.68 5.88L474.68 12.38L474.68 12.38Q474.68 14.08 473.79 14.98L473.79 14.98L473.79 14.98Q472.89 15.88 471.32 15.88L471.32 15.88L471.32 15.88Q469.76 15.88 468.86 14.98L468.86 14.98L468.86 14.98Q467.96 14.08 467.96 12.38L467.96 12.38L467.96 5.88ZM483.45 6.97L483.45 5.88L490.34 5.88L490.34 6.97L487.48 6.97L487.48 15.68L486.30 15.68L486.30 6.97L483.45 6.97ZM499.10 5.88L500.28 5.88L500.28 12.38L500.28 12.38Q500.28 13.57 500.83 14.17L500.83 14.17L500.83 14.17Q501.38 14.78 502.46 14.78L502.46 14.78L502.46 14.78Q503.54 14.78 504.09 14.17L504.09 14.17L504.09 14.17Q504.64 13.57 504.64 12.38L504.64 12.38L504.64 5.88L505.82 5.88L505.82 12.38L505.82 12.38Q505.82 14.08 504.92 14.98L504.92 14.98L504.92 14.98Q504.03 15.88 502.46 15.88L502.46 15.88L502.46 15.88Q500.89 15.88 500.00 14.98L500.00 14.98L500.00 14.98Q499.10 14.08 499.10 12.38L499.10 12.38L499.10 5.88ZM521.09 12.15L521.09 15.68L519.92 15.68L519.92 12.40L519.92 12.40Q519.92 12.04 519.75 11.84L519.75 11.84L519.75 11.84Q519.58 11.65 519.16 11.65L519.16 11.65L516.11 11.65L516.11 15.68L514.93 15.68L514.93 5.88L518.43 5.88L518.43 5.88Q519.19 5.88 519.75 6.10L519.75 6.10L519.75 6.10Q520.31 6.31 520.68 6.68L520.68 6.68L520.68 6.68Q521.05 7.04 521.24 7.53L521.24 7.53L521.24 7.53Q521.43 8.01 521.43 8.54L521.43 8.54L521.43 8.96L521.43 8.96Q521.43 9.51 521.13 10.05L521.13 10.05L521.13 10.05Q520.83 10.60 520.20 10.89L520.20 10.89L520.20 11.06L520.20 11.06Q520.62 11.13 520.86 11.40L520.86 11.40L520.86 11.40Q521.09 11.66 521.09 12.15L521.09 12.15ZM516.11 6.97L516.11 10.56L518.29 10.56L518.29 10.56Q519.29 10.56 519.77 10.13L519.77 10.13L519.77 10.13Q520.25 9.70 520.25 8.88L520.25 8.88L520.25 8.62L520.25 8.62Q520.25 7.88 519.77 7.43L519.77 7.43L519.77 7.43Q519.29 6.97 518.29 6.97L518.29 6.97L516.11 6.97ZM530.63 15.68L530.63 5.88L536.56 5.88L536.56 6.97L531.80 6.97L531.80 10.22L536.48 10.22L536.48 11.31L531.80 11.31L531.80 14.59L536.65 14.59L536.65 15.68L530.63 15.68ZM551.47 9.21L551.47 8.71L551.47 8.71Q551.47 8.23 551.28 7.87L551.28 7.87L551.28 7.87Q551.10 7.50 550.77 7.27L550.77 7.27L550.77 7.27Q550.45 7.03 550.03 6.90L550.03 6.90L550.03 6.90Q549.61 6.78 549.15 6.78L549.15 6.78L549.15 6.78Q548.74 6.78 548.38 6.88L548.38 6.88L548.38 6.88Q548.02 6.99 547.73 7.18L547.73 7.18L547.73 7.18Q547.44 7.38 547.27 7.66L547.27 7.66L547.27 7.66Q547.11 7.95 547.11 8.33L547.11 8.33L547.11 8.41L547.11 8.41Q547.11 8.82 547.27 9.11L547.27 9.11L547.27 9.11Q547.44 9.39 547.77 9.60L547.77 9.60L547.77 9.60Q548.10 9.80 548.59 9.93L548.59 9.93L548.59 9.93Q549.08 10.07 549.74 10.16L549.74 10.16L549.74 10.16Q551.28 10.40 552.01 11.07L552.01 11.07L552.01 11.07Q552.73 11.73 552.73 12.85L552.73 12.85L552.73 13.02L552.73 13.02Q552.73 13.65 552.52 14.17L552.52 14.17L552.52 14.17Q552.30 14.70 551.87 15.08L551.87 15.08L551.87 15.08Q551.45 15.46 550.82 15.67L550.82 15.67L550.82 15.67Q550.19 15.88 549.36 15.88L549.36 15.88L549.36 15.88Q548.42 15.88 547.70 15.60L547.70 15.60L547.70 15.60Q546.98 15.33 546.50 14.85L546.50 14.85L546.50 14.85Q546.01 14.36 545.76 13.71L545.76 13.71L545.76 13.71Q545.51 13.06 545.51 12.29L545.51 12.29L545.51 11.87L546.69 11.87L546.69 12.21L546.69 12.21Q546.69 13.50 547.39 14.14L547.39 14.14L547.39 14.14Q548.10 14.78 549.36 14.78L549.36 14.78L549.36 14.78Q550.45 14.78 551.00 14.30L551.00 14.30L551.00 14.30Q551.56 13.82 551.56 13.02L551.56 13.02L551.56 12.94L551.56 12.94Q551.56 12.17 550.99 11.76L550.99 11.76L550.99 11.76Q550.42 11.35 549.15 11.17L549.15 11.17L549.15 11.17Q548.41 11.07 547.81 10.87L547.81 10.87L547.81 10.87Q547.22 10.67 546.80 10.34L546.80 10.34L546.80 10.34Q546.38 10.01 546.15 9.55L546.15 9.55L546.15 9.55Q545.93 9.09 545.93 8.46L545.93 8.46L545.93 8.29L545.93 8.29Q545.93 7.71 546.17 7.24L546.17 7.24L546.17 7.24Q546.41 6.76 546.83 6.41L546.83 6.41L546.83 6.41Q547.26 6.06 547.85 5.87L547.85 5.87L547.85 5.87Q548.45 5.68 549.16 5.68L549.16 5.68L549.16 5.68Q549.99 5.68 550.64 5.92L550.64 5.92L550.64 5.92Q551.29 6.16 551.74 6.56L551.74 6.56L551.74 6.56Q552.19 6.96 552.42 7.50L552.42 7.50L552.42 7.50Q552.65 8.04 552.65 8.62L552.65 8.62L552.65 9.21L551.47 9.21Z"></path></g></svg>